<svg width="24" height="24" viewBox="0 0 24 24" fill="none" xmlns="http://www.w3.org/2000/svg">
<path d="M15.3333 4.5H2.83325V15.3333H15.3333V4.5Z" stroke="white" stroke-linecap="round" stroke-linejoin="round"/>
<path d="M15.3333 8.66675H18.6666L21.1666 11.1667V15.3334H15.3333V8.66675Z" stroke="white" stroke-linecap="round" stroke-linejoin="round"/>
<path d="M6.58333 19.4999C7.73393 19.4999 8.66667 18.5672 8.66667 17.4166C8.66667 16.266 7.73393 15.3333 6.58333 15.3333C5.43274 15.3333 4.5 16.266 4.5 17.4166C4.5 18.5672 5.43274 19.4999 6.58333 19.4999Z" stroke="white" stroke-linecap="round" stroke-linejoin="round"/>
<path d="M17.4166 19.4999C18.5672 19.4999 19.4999 18.5672 19.4999 17.4166C19.4999 16.266 18.5672 15.3333 17.4166 15.3333C16.266 15.3333 15.3333 16.266 15.3333 17.4166C15.3333 18.5672 16.266 19.4999 17.4166 19.4999Z" stroke="white" stroke-linecap="round" stroke-linejoin="round"/>
</svg>
