<svg width="36" height="36" viewBox="0 0 36 36" fill="none" xmlns="http://www.w3.org/2000/svg">
<path d="M31.915 17.9979C31.915 25.6854 25.684 31.9164 17.9965 31.9164C17.7547 31.9164 17.5185 31.9108 17.2823 31.8995H17.271C9.88156 31.5059 4.0892 25.3986 4.0892 17.9979C4.0892 10.5971 9.88156 4.48986 17.2767 4.10183H17.2879C17.5241 4.08496 17.7603 4.08496 18.0021 4.08496C25.684 4.08496 31.915 10.3103 31.915 17.9979Z" fill="#3DAE2B"/>
<path d="M30.4754 17.9981C30.4754 25.4044 24.6774 31.5117 17.2823 31.8941H17.271C9.88156 31.5061 4.0892 25.3988 4.0892 17.9981C4.0892 10.5974 9.88156 4.49008 17.2767 4.10205H17.2879C24.6774 4.48446 30.4754 10.5974 30.4754 17.9981Z" fill="#7BBA6E"/>
<path d="M29.0357 17.998C29.0357 18.1779 29.0301 18.3522 29.0189 18.5266C29.0189 18.5547 29.0189 18.5828 29.0132 18.6109C29.0076 18.7065 29.002 18.8021 28.9964 18.8977C28.9795 19.0777 28.957 19.2633 28.9345 19.4376C28.9176 19.5613 28.9064 19.685 28.8839 19.8088C28.8727 19.8931 28.8614 19.9775 28.8389 20.0562C28.822 20.1687 28.7939 20.2755 28.7714 20.3824C28.7489 20.5173 28.7152 20.6523 28.6758 20.7873C28.6421 20.9335 28.5971 21.0741 28.5577 21.2203C28.4959 21.434 28.4284 21.6365 28.344 21.8445C28.2934 21.9907 28.2316 22.1313 28.1753 22.2719C28.1697 22.2888 28.1641 22.3 28.1584 22.3169C28.1135 22.4181 28.0741 22.5194 28.0235 22.615C27.9672 22.7443 27.9054 22.8737 27.8435 22.9974C27.7817 23.1211 27.7198 23.2448 27.6523 23.3573C27.6017 23.4473 27.5511 23.5372 27.5005 23.6272C27.4442 23.7228 27.388 23.8184 27.3205 23.914C27.3205 23.9253 27.3149 23.9421 27.3037 23.9478C27.2418 24.0434 27.1799 24.139 27.1124 24.2346C26.91 24.5326 26.6963 24.8251 26.4601 25.1006C26.3701 25.2131 26.2745 25.3143 26.1789 25.4212C26.0608 25.5505 25.9371 25.6799 25.8134 25.8036C25.6447 25.9723 25.4703 26.1354 25.2904 26.2872C25.206 26.3659 25.1217 26.439 25.0373 26.5065C24.9361 26.5909 24.8292 26.6809 24.728 26.754C24.6493 26.8102 24.5762 26.8664 24.4918 26.9283C24.0869 27.2264 23.6652 27.4963 23.2209 27.7269C23.0859 27.8 22.9509 27.8731 22.8104 27.9406C22.7935 27.9462 22.7822 27.9574 22.7654 27.9574C22.6473 28.0137 22.5179 28.0755 22.3942 28.1205C21.9331 28.3286 21.4551 28.4973 20.9714 28.6266C20.8646 28.6604 20.7577 28.6885 20.6453 28.711C20.0267 28.8685 19.3912 28.9641 18.7557 29.0034L18.4914 29.0203C18.3339 29.0316 18.1765 29.0372 18.0134 29.0372C17.7266 29.0372 17.4398 29.0259 17.1642 29.0034C17.0574 28.9978 16.9505 28.9866 16.8493 28.9753C16.7368 28.9641 16.6356 28.9528 16.5231 28.9359C16.3769 28.9191 16.2363 28.891 16.0845 28.8685C16.0676 28.8685 16.0507 28.8628 16.0339 28.8572C15.8876 28.8347 15.7302 28.801 15.584 28.7672C15.4884 28.7504 15.3984 28.7222 15.3028 28.6998C15.2072 28.6773 15.1228 28.6548 15.0329 28.6266C14.746 28.5423 14.4592 28.4523 14.1781 28.3511C14.0487 28.3005 13.9137 28.2499 13.79 28.1993C12.8959 27.8281 12.0579 27.3445 11.2931 26.754C11.0401 26.5628 10.7926 26.3547 10.5564 26.1354C9.84223 25.4887 9.218 24.7463 8.70063 23.9309C8.52629 23.6553 8.36321 23.3798 8.22262 23.0986C7.77272 22.2438 7.44093 21.3328 7.23285 20.388C7.16537 20.0787 7.10913 19.7638 7.06977 19.4432C7.00791 18.9652 6.97417 18.4872 6.97417 18.0036C6.97417 17.5199 7.00791 17.0419 7.07539 16.5639C7.10913 16.2434 7.16537 15.9284 7.23848 15.6191C7.44093 14.6744 7.77272 13.7633 8.22262 12.9086C8.36883 12.6217 8.53192 12.3406 8.70625 12.0763C9.92096 10.1642 11.698 8.67957 13.79 7.8079C14.0825 7.68418 14.3861 7.57171 14.6898 7.48173C15.6121 7.1893 16.5681 7.02059 17.5298 6.98123C17.6872 6.96998 17.8447 6.96436 18.0078 6.96436C18.1708 6.96436 18.3283 6.96998 18.4858 6.98123C19.453 7.02059 20.4091 7.18368 21.3257 7.48173C21.6294 7.57171 21.9331 7.67856 22.2255 7.80228C23.9013 8.49961 25.3804 9.60185 26.5332 11.0078C26.6626 11.1708 26.7919 11.3339 26.9156 11.5026C26.9325 11.5251 26.9494 11.5476 26.9662 11.5701C27.0787 11.7332 27.1968 11.9019 27.3093 12.0763C27.3993 12.2168 27.4836 12.3518 27.5567 12.4868C27.6354 12.6274 27.7142 12.7623 27.7929 12.9086C27.8435 13.0154 27.9054 13.1222 27.9504 13.2291C27.9954 13.3135 28.0347 13.4091 28.0741 13.4934C28.2878 13.9714 28.4677 14.4607 28.614 14.9612C28.6421 15.0624 28.6702 15.1636 28.6927 15.2649C28.9176 16.1534 29.0357 17.0757 29.0357 17.998Z" fill="#BEEAB7"/>
<path d="M17.5016 19.848L16.6355 20.714C16.3937 20.9558 16.0394 21.0514 15.7076 20.9615C15.3759 20.8715 15.1172 20.6128 15.0272 20.281C14.9372 19.9492 15.0328 19.5949 15.2746 19.3531L16.1407 18.4871L18.4857 16.142L25.116 9.51172L26.4713 10.867L17.5016 19.848Z" fill="#BEEAB7"/>
<path d="M20.7128 20.7142C20.3361 21.0854 19.7343 21.0854 19.3575 20.7142L9.70174 11.0584L11.057 9.70312L17.5017 16.1478L19.8468 18.4929L20.7128 19.3589C21.084 19.7357 21.084 20.3374 20.7128 20.7142Z" fill="#BEEAB7"/>
<path d="M10.4104 7.02044C11.4114 7.95959 11.4676 9.52859 10.5285 10.5352C9.52182 11.4687 7.95282 11.4181 7.01367 10.4171C6.01267 9.41049 5.18036 7.05981 6.11389 6.12628C7.05866 5.18713 9.40935 6.01943 10.4104 7.02044Z" fill="#BEEAB7"/>
<path d="M19.9142 17.9982C19.9142 19.0611 19.0538 19.9159 17.9966 19.9159C16.9393 19.9159 16.0789 19.0555 16.0789 17.9982C16.0789 16.941 16.9393 16.0806 17.9966 16.0806C19.0594 16.0806 19.9142 16.941 19.9142 17.9982Z" fill="#BEEAB7"/>
<path d="M11.3944 6.64372C13.5426 5.11409 16.0845 4.2368 18.7107 4.10183H18.722C18.4802 4.09058 18.2383 4.08496 17.9909 4.08496C17.7491 4.08496 17.5129 4.09058 17.2767 4.10183H17.2655C14.9148 4.21993 12.6316 4.93976 10.6295 6.19383C10.8995 6.32317 11.1525 6.46939 11.3944 6.64372Z" fill="white"/>
<path d="M17.2711 31.894H17.2824C17.5186 31.9109 17.7548 31.9109 17.9966 31.9109C18.2384 31.9109 18.4859 31.9053 18.7277 31.894H18.7108C13.6439 31.6297 9.1281 28.6323 6.91239 24.0659C4.70229 19.5051 5.14656 14.0952 8.08211 9.95617C7.2723 8.82019 6.7493 6.93627 7.56473 6.12084C7.71657 5.97462 7.89653 5.86777 8.09898 5.80591C7.31729 5.63158 6.56372 5.67657 6.12508 6.11521C5.30965 6.93064 5.83265 8.81457 6.64245 9.95054C3.70691 14.0952 3.26264 19.5051 5.47273 24.0659C7.68845 28.6323 12.2099 31.6297 17.2711 31.894Z" fill="white"/>
<path d="M4.56165 17.998C4.56727 20.0113 5.02841 22.0021 5.90008 23.8185C6.17001 24.3865 6.47931 24.932 6.82236 25.4606C7.00231 25.7193 7.19352 25.9668 7.38472 26.2198C7.5703 26.4729 7.76713 26.7147 7.98645 26.9396C8.81875 27.8844 9.78602 28.6999 10.8545 29.3634C11.9174 30.0383 13.0702 30.5557 14.2793 30.8987C15.4884 31.2417 16.7425 31.4217 17.9965 31.4386V32.3946C16.6469 32.3833 15.3084 32.1865 14.015 31.821C12.7159 31.4498 11.4844 30.8931 10.3428 30.1732C9.19554 29.459 8.16641 28.5874 7.27225 27.5751C7.03606 27.3333 6.82236 27.0746 6.62553 26.7991C6.42308 26.5291 6.215 26.2648 6.02942 25.9893C5.66389 25.4269 5.33209 24.8364 5.03966 24.229C4.10051 22.2889 3.60563 20.1575 3.60001 17.998H4.56165Z" fill="white"/>
<path d="M24.6101 5.73849C24.6663 5.62602 24.6775 5.49105 24.6326 5.37295C24.5932 5.25486 24.5032 5.15363 24.3907 5.09739C20.3586 3.101 15.6235 3.101 11.5913 5.09739C11.3945 5.19862 11.2876 5.41794 11.3382 5.63726C11.3889 5.85659 11.5801 6.00842 11.805 6.00842C11.8781 6.00842 11.9512 5.99155 12.0187 5.95781C15.7809 4.09638 20.1955 4.09638 23.9633 5.95781C24.0758 6.01405 24.2108 6.0253 24.3289 5.98031C24.4582 5.94094 24.5538 5.85659 24.6101 5.73849Z" fill="#006937"/>
<path d="M4.8597 21.3725L4.77535 21.3332C4.7416 21.3219 4.71349 21.3163 4.67974 21.3107C4.65163 21.3051 4.61788 21.2994 4.58977 21.3051C4.55602 21.3051 4.52791 21.3107 4.49416 21.3163C4.37044 21.3501 4.26359 21.4288 4.19611 21.5356C4.07239 21.7718 4.1455 22.0643 4.37044 22.2105C4.42668 22.2386 4.49416 22.2555 4.55602 22.2611C4.61788 22.2667 4.67974 22.2611 4.7416 22.2442C4.98904 22.1599 5.12964 21.9068 5.0734 21.6537C5.04528 21.5413 4.96655 21.4344 4.8597 21.3725Z" fill="#006937"/>
<path d="M5.09594 11.5981C4.10618 13.5889 3.59443 15.7765 3.60005 17.9979L3.65066 18.9876L3.67878 19.4825L3.75189 19.9718C3.76876 20.1011 3.83625 20.2136 3.93747 20.2923C4.0387 20.371 4.16804 20.3992 4.29738 20.3823C4.55607 20.3373 4.73041 20.1011 4.70229 19.8424L4.62918 19.3869L4.60669 18.9258L4.5617 17.9979C4.55607 15.9284 5.03408 13.8813 5.95636 12.0255C6.03509 11.8737 6.02385 11.6881 5.92824 11.5419C5.83264 11.3957 5.66956 11.317 5.49522 11.3282C5.32651 11.3451 5.17467 11.4463 5.09594 11.5981Z" fill="#006937"/>
<path d="M30.2562 11.3847C30.1437 11.441 30.0538 11.5422 30.0144 11.6603C29.975 11.7784 29.9806 11.9134 30.0369 12.0258C30.9592 13.8816 31.4372 15.923 31.4315 17.9981C31.4259 25.4157 25.4142 31.4274 17.9967 31.433C16.737 31.4218 15.4885 31.2418 14.2794 30.8988C13.0703 30.5557 11.9175 30.0384 10.8546 29.3635C9.78613 28.6999 8.81886 27.8845 7.98656 26.9397C7.76724 26.7148 7.56479 26.473 7.38483 26.2199C7.19925 25.9668 7.00242 25.7194 6.82247 25.4607C6.47942 24.9321 6.17012 24.3866 5.90019 23.8186L5.69774 23.4025C5.58526 23.1719 5.31533 23.0594 5.07351 23.155C4.94979 23.2 4.85419 23.2956 4.8092 23.4193C4.75859 23.5374 4.76421 23.6724 4.82045 23.7905L5.03415 24.2404C5.32658 24.8477 5.65837 25.4326 6.02391 26.0006C6.21511 26.2761 6.42319 26.5405 6.62564 26.8104C6.82247 27.086 7.03616 27.3446 7.27236 27.5865C8.16652 28.5987 9.20127 29.4704 10.3429 30.1846C11.4845 30.9044 12.7217 31.4612 14.0151 31.8267C15.3142 32.1922 16.6526 32.3834 17.9967 32.4003C25.9429 32.3891 32.3819 25.95 32.3932 18.0038C32.3988 15.7824 31.8871 13.5948 30.8973 11.6041C30.8411 11.4916 30.7398 11.4016 30.6217 11.3622C30.498 11.3172 30.3687 11.3285 30.2562 11.3847Z" fill="#006937"/>
<path d="M28.3667 12.9928C28.2936 12.8409 28.1417 12.7341 27.9674 12.7228C27.7987 12.7116 27.63 12.7903 27.5344 12.9309C27.4388 13.0715 27.4275 13.2571 27.5006 13.4089C27.8549 14.14 28.1249 14.9048 28.2992 15.6978L27.3657 15.8608C27.1182 15.9058 26.9495 16.1251 26.972 16.3726C26.9945 16.62 27.2026 16.8112 27.45 16.8112C27.4781 16.8112 27.5063 16.8112 27.5344 16.8056L28.4679 16.6425C28.586 17.5423 28.586 18.459 28.4679 19.3587L27.5344 19.1957C27.2757 19.1507 27.0226 19.325 26.9776 19.5837C26.9326 19.8424 27.107 20.0954 27.3657 20.1404L28.2992 20.3035C28.1024 21.1921 27.7874 22.0469 27.3657 22.8567L26.5502 22.3843C26.404 22.2999 26.2184 22.2943 26.0666 22.3843C25.9148 22.4686 25.8248 22.6317 25.8248 22.8004C25.8248 22.9748 25.9204 23.1322 26.0666 23.2166L26.882 23.689C26.3928 24.4538 25.8023 25.1511 25.1387 25.7697L24.5313 25.0499C24.4245 24.9149 24.2502 24.8474 24.0758 24.8755C23.9015 24.9037 23.7609 25.0218 23.7047 25.1905C23.6484 25.3536 23.6822 25.5391 23.7946 25.6685L24.4076 26.3771C23.6878 26.9282 22.8949 27.3893 22.0569 27.738L21.7308 26.8495C21.6745 26.6864 21.5339 26.5626 21.3652 26.5345C21.1965 26.5008 21.0222 26.5683 20.9097 26.7032C20.7972 26.8382 20.7691 27.0182 20.831 27.1812L21.1572 28.0754C20.2911 28.3453 19.3913 28.5028 18.4803 28.5478V27.5974C18.4803 27.3331 18.2666 27.1194 18.0023 27.1194C17.738 27.1194 17.5243 27.3331 17.5243 27.5974V28.5478C16.6132 28.5084 15.7135 28.351 14.8474 28.081L15.1736 27.1869C15.2355 27.0238 15.2073 26.8438 15.0949 26.7089C14.9824 26.5739 14.8081 26.512 14.6393 26.5458C14.4706 26.5795 14.33 26.6976 14.2738 26.8607L13.9476 27.7492C13.1097 27.4006 12.3168 26.9394 11.597 26.3883L12.2043 25.6685C12.3168 25.5391 12.3561 25.3536 12.2943 25.1905C12.2381 25.0274 12.0918 24.9093 11.9231 24.8755C11.7488 24.8474 11.5801 24.9149 11.4676 25.0499L10.8546 25.7697C10.1854 25.1567 9.60056 24.4538 9.1113 23.689L9.92673 23.2166C10.0786 23.1322 10.1685 22.9748 10.1685 22.8004C10.1685 22.6261 10.0786 22.4686 9.92673 22.3843C9.77489 22.2999 9.59494 22.2999 9.4431 22.3843L8.62767 22.8567C8.2059 22.0469 7.8966 21.1921 7.69415 20.2979L8.62767 20.1348C8.79638 20.1067 8.93697 19.9886 8.99321 19.8255C9.04944 19.6624 9.02133 19.4825 8.90885 19.3531C8.79638 19.2238 8.62767 19.1619 8.45896 19.19L7.52544 19.3531C7.40734 18.4533 7.40734 17.5367 7.52544 16.6369L8.45896 16.8C8.48708 16.8056 8.5152 16.8056 8.54332 16.8056C8.79076 16.8056 8.99883 16.6144 9.02133 16.367C9.04382 16.1195 8.86949 15.8946 8.62767 15.8552L7.68852 15.6921C7.86285 14.9048 8.13279 14.1344 8.48708 13.4089C8.56019 13.2571 8.54894 13.0715 8.45334 12.9309C8.35774 12.7903 8.19465 12.706 8.02032 12.7228C7.85161 12.7341 7.69977 12.8353 7.62104 12.9928C6.86185 14.5505 6.46819 16.2657 6.47381 17.9978C6.47381 18.667 6.53567 19.3306 6.64815 19.9886V19.9998C6.64815 20.0055 6.65377 20.0055 6.65377 20.0111C6.88434 21.3214 7.34548 22.5811 8.00907 23.7283C8.01469 23.7396 8.01469 23.7452 8.02032 23.7564C8.02594 23.7677 8.03719 23.7789 8.04844 23.7902C8.71203 24.9262 9.56682 25.9384 10.5678 26.7876C10.5791 26.7988 10.5791 26.8101 10.5903 26.8157C10.6016 26.827 10.6128 26.827 10.6241 26.8326C14.8924 30.398 21.1009 30.398 25.3636 26.8326C25.3749 26.827 25.3861 26.8213 25.3974 26.8157C25.4086 26.8101 25.4143 26.7932 25.4199 26.7876C26.4265 25.9384 27.2757 24.9262 27.9393 23.7902C27.9505 23.7789 27.9561 23.7677 27.9618 23.7564C27.9674 23.7452 27.9674 23.7396 27.973 23.7283C28.6366 22.5755 29.0977 21.3158 29.3283 20.0111C29.3283 20.0055 29.3339 20.0055 29.3339 19.9998C29.3339 19.9942 29.3339 19.9942 29.3339 19.9886C29.452 19.3306 29.5083 18.667 29.5083 17.9978C29.5195 16.2657 29.1259 14.5505 28.3667 12.9928Z" fill="#006937"/>
<path d="M5.78202 5.78326C4.60105 6.96423 5.50084 9.5736 6.6818 10.7546C7.23854 11.3226 7.99211 11.6544 8.78505 11.6825H8.88627C9.11122 11.6825 9.33617 11.6487 9.55549 11.5981L15.629 17.6717C15.6122 17.7785 15.6009 17.891 15.5953 18.0035C15.6009 18.1159 15.6122 18.2228 15.629 18.3352L14.9373 19.027C14.375 19.5893 14.375 20.5004 14.9373 21.0627C15.4997 21.6251 16.4107 21.6251 16.9731 21.0627L17.6648 20.371C17.7716 20.3879 17.8841 20.3991 17.9966 20.4047C18.1091 20.3991 18.2159 20.3879 18.3284 20.371L19.0201 21.0627C19.5881 21.6195 20.4935 21.6138 21.0559 21.0571C21.607 20.4891 21.607 19.5893 21.0559 19.0213L20.3641 18.3296C20.381 18.2228 20.3923 18.1103 20.3979 17.9978C20.3923 17.8854 20.381 17.7785 20.3641 17.666L26.5445 11.4913C27.09 11.7556 27.748 11.6487 28.1754 11.2157L31.5664 7.81903C31.7014 7.70093 31.7577 7.52097 31.7127 7.34664C31.6677 7.17231 31.5327 7.03734 31.364 6.99797C31.1897 6.95298 31.0097 7.00922 30.8916 7.14419L27.5006 10.5352C27.315 10.7208 27.0113 10.7208 26.8257 10.5352L26.4883 10.1978L30.2224 6.46373C30.3461 6.34563 30.3967 6.16567 30.3517 5.99696C30.3068 5.82825 30.1774 5.69891 30.0087 5.65392C29.84 5.60893 29.66 5.65954 29.5419 5.78326L25.8078 9.51737L25.4704 9.17995C25.2848 8.99437 25.2848 8.69069 25.4704 8.50511L28.8615 5.11405C29.0414 4.92847 29.0414 4.62479 28.8559 4.43921C28.6703 4.25363 28.3722 4.25363 28.181 4.43359L24.7843 7.81903C24.3513 8.24642 24.2388 8.90439 24.5088 9.44988L18.3284 15.6303C18.2215 15.6134 18.1091 15.6022 17.9966 15.5965C17.8841 15.6022 17.7773 15.6134 17.6648 15.6303L11.5969 9.56236C11.6587 9.30929 11.6869 9.04498 11.6756 8.78629C11.6475 7.99336 11.3157 7.23979 10.7477 6.68305C9.57236 5.50208 6.95736 4.6023 5.78202 5.78326ZM8.81879 10.7208C8.26767 10.6983 7.74467 10.4678 7.36227 10.0741C6.42874 9.14058 5.81014 7.11607 6.46248 6.46373C6.69867 6.2669 7.00235 6.1713 7.31165 6.19379C8.34078 6.25003 9.31929 6.66618 10.0785 7.36351C10.4721 7.75154 10.7027 8.26892 10.7252 8.82003C10.7533 9.33179 10.5621 9.83229 10.1966 10.1978C9.83105 10.5577 9.33054 10.7489 8.81879 10.7208ZM16.2982 20.3766C16.2083 20.4666 16.0845 20.5172 15.9608 20.5172C15.8371 20.5172 15.7134 20.4666 15.6234 20.3766C15.5334 20.2867 15.4828 20.1629 15.4828 20.0392C15.4828 19.9099 15.5334 19.7918 15.6234 19.7018L16.0002 19.325C16.1801 19.5949 16.4107 19.8255 16.6807 20.0055L16.2982 20.3766ZM20.3698 19.6962C20.4935 19.8199 20.5385 19.9942 20.4935 20.1573C20.4485 20.3204 20.3192 20.4554 20.1561 20.5004C19.993 20.5453 19.813 20.5004 19.6893 20.3766L19.3125 19.9998C19.5825 19.8199 19.813 19.5893 19.993 19.3194L20.3698 19.6962ZM25.1217 10.1922L25.8022 10.8727L19.993 16.6763C19.813 16.4063 19.5825 16.1758 19.3125 15.9958L25.1217 10.1922ZM19.4362 17.9978C19.4362 18.7908 18.7895 19.4375 17.9966 19.4375C17.2036 19.4375 16.5569 18.7908 16.5569 17.9978C16.5569 17.2049 17.2036 16.5582 17.9966 16.5582C18.7895 16.5582 19.4362 17.2049 19.4362 17.9978ZM16.675 15.9958C16.4051 16.1758 16.1745 16.4063 15.9946 16.6763L10.4946 11.1763C10.7646 10.9964 10.9951 10.7658 11.1751 10.4959L16.675 15.9958Z" fill="#006937"/>
<path d="M21.1177 9.43312C21.2358 9.47811 21.3707 9.47249 21.4832 9.41625C21.6013 9.36001 21.6857 9.26441 21.7306 9.14632L22.0568 8.25778C22.2368 8.33089 22.4111 8.40962 22.5854 8.4996C22.8216 8.61769 23.1141 8.51647 23.2265 8.27465C23.3446 8.03846 23.2434 7.75165 23.0072 7.63355C22.6586 7.46484 22.3043 7.31863 21.9443 7.18366C21.9387 7.18366 21.9387 7.17804 21.9331 7.17804C21.9275 7.17804 21.9275 7.17804 21.9219 7.17804C19.38 6.25576 16.5963 6.25576 14.06 7.17804L14.0544 7.18366C13.6944 7.313 13.3402 7.46484 12.9915 7.63355C12.7553 7.75165 12.6541 8.03846 12.7722 8.27465C12.8903 8.51084 13.1771 8.61207 13.4133 8.49397C13.5876 8.40962 13.7676 8.33089 13.9419 8.25215L14.2681 9.14632C14.3243 9.3094 14.4649 9.43312 14.6336 9.46124C14.8023 9.49498 14.9766 9.4275 15.0891 9.29253C15.2016 9.15756 15.2297 8.97761 15.1678 8.81452L14.8417 7.92598C15.7077 7.65042 16.6075 7.49296 17.5185 7.4536V8.39837C17.5185 8.66268 17.7322 8.87638 17.9965 8.87638C18.2609 8.87638 18.4746 8.66268 18.4746 8.39837V7.4536C19.3856 7.49296 20.2854 7.65042 21.1514 7.92598L20.8252 8.81452C20.7802 8.93262 20.7859 9.06758 20.8421 9.18006C20.8983 9.29815 20.9939 9.38813 21.1177 9.43312Z" fill="#006937"/>
</svg>
