<svg width="24" height="24" viewBox="0 0 24 24" fill="none" xmlns="http://www.w3.org/2000/svg">
<path d="M18.9688 10.9688C18.8125 11.1354 18.651 11.3125 18.4844 11.5C18.3177 11.6875 18.1068 11.9375 17.8516 12.25C17.5964 12.5625 17.3906 12.875 17.2344 13.1875C17.0781 13.5 17 13.7708 17 14C17 14.2812 16.513 14.5182 15.5391 14.7109C14.5651 14.9036 13.3854 15 12 15C10.6146 15 9.4349 14.9036 8.46094 14.7109C7.48698 14.5182 7 14.2812 7 14C7 13.6979 6.85938 13.3203 6.57812 12.8672C6.29688 12.4141 6.03385 12.0495 5.78906 11.7734C5.54427 11.4974 5.30208 11.2396 5.0625 11C4.35417 10.3125 4 9.47917 4 8.5C4 7.53125 4.34115 6.70573 5.02344 6.02344C5.70573 5.34115 6.53125 5 7.5 5C7.73958 5 7.98958 5.02604 8.25 5.07812C8.08333 5.50521 8 5.97917 8 6.5C8 7.61458 8.34375 8.54167 9.03125 9.28125C9.01042 8.71875 9 8.125 9 7.5C9 6.53125 9.29167 5.70573 9.875 5.02344C10.4583 4.34115 11.1667 4 12 4C12.8333 4 13.5417 4.34115 14.125 5.02344C14.7083 5.70573 15 6.53125 15 7.5C15 8.13542 14.9896 8.72917 14.9688 9.28125C15.6562 8.54167 16 7.61458 16 6.5C16 5.97917 15.9167 5.50521 15.75 5.07812C16.0104 5.02604 16.2604 5 16.5 5C17.4688 5 18.2943 5.34115 18.9766 6.02344C19.6589 6.70573 20 7.53125 20 8.5C20 9.46875 19.6562 10.2917 18.9688 10.9688ZM11.9922 16C13.3724 16 14.5521 15.901 15.5312 15.7031C16.5104 15.5052 17 15.2708 17 15V19C17 19.2708 16.5104 19.5052 15.5312 19.7031C14.5521 19.901 13.3724 20 11.9922 20C10.612 20 9.4349 19.901 8.46094 19.7031C7.48698 19.5052 7 19.2708 7 19V15C7 15.2812 7.48698 15.5182 8.46094 15.7109C9.4349 15.9036 10.612 16 11.9922 16Z" fill="#F3F3F3"/>
</svg>
