<svg width="36" height="36" viewBox="0 0 36 36" fill="none" xmlns="http://www.w3.org/2000/svg">
<g clip-path="url(#clip0)">
<path d="M4.65909 24.4438H31.3472C32.2291 24.4438 32.9484 25.1631 32.9484 26.045V31.3801H3.05792V26.045C3.05792 25.1631 3.77094 24.4438 4.65909 24.4438Z" fill="#3DAE2B"/>
<path d="M4.65909 24.4438H29.7461C30.628 24.4438 31.3472 25.1631 31.3472 26.045V31.3801H3.05792V26.045C3.05792 25.1631 3.77094 24.4438 4.65909 24.4438Z" fill="#BEEAB7"/>
<path d="M15.3293 26.583H20.6645C20.9584 26.583 21.1961 26.8207 21.1961 27.1146V28.7158C21.1961 29.0098 20.9584 29.2474 20.6645 29.2474H15.3293C15.0354 29.2474 14.7977 29.0098 14.7977 28.7158V27.1146C14.7977 26.8207 15.0354 26.583 15.3293 26.583Z" fill="#006937"/>
<path d="M15.3293 26.583H19.0633C19.3573 26.583 19.5949 26.8207 19.5949 27.1146V28.7158C19.5949 29.0098 19.3573 29.2474 19.0633 29.2474H15.3293C15.0354 29.2474 14.7977 29.0098 14.7977 28.7158V27.1146C14.7977 26.8207 15.0354 26.583 15.3293 26.583Z" fill="#3DAE2B"/>
<path d="M24.6737 29.2474C25.4094 29.2474 26.0059 28.651 26.0059 27.9152C26.0059 27.1795 25.4094 26.583 24.6737 26.583C23.9379 26.583 23.3414 27.1795 23.3414 27.9152C23.3414 28.651 23.9379 29.2474 24.6737 29.2474Z" fill="#D1D4D1"/>
<path d="M29.4771 29.2474C30.2129 29.2474 30.8094 28.651 30.8094 27.9152C30.8094 27.1795 30.2129 26.583 29.4771 26.583C28.7414 26.583 28.1449 27.1795 28.1449 27.9152C28.1449 28.651 28.7414 29.2474 29.4771 29.2474Z" fill="#D1D4D1"/>
<path d="M9.46262 11.103H26.5438V21.2416C26.5438 23.0117 25.1115 24.444 23.3415 24.444H12.6649C10.8949 24.444 9.46262 23.0117 9.46262 21.2416V11.103Z" fill="#3DAE2B"/>
<path d="M9.46262 11.103H24.9426V21.2416C24.9426 23.0117 23.5103 24.444 21.7403 24.444H12.6649C10.8949 24.444 9.46262 23.0117 9.46262 21.2416V11.103Z" fill="#BEEAB7"/>
<path d="M23.873 0.533009C22.9286 0.783191 22.1655 1.47119 21.8027 2.37185L19.107 11.0969H23.7979L27.4443 4.86115C27.951 3.77286 27.7883 2.49068 27.0253 1.56501C26.2622 0.639337 25.0363 0.239046 23.873 0.533009ZM25.0614 2.67206C25.593 2.90974 25.7556 3.74159 25.3991 4.56719C24.9175 5.67424 23.7979 6.04952 23.3789 5.20515C22.8035 4.06057 24.0294 2.20923 25.0363 2.64079L25.0614 2.67206Z" fill="#BEEAB7"/>
<path d="M27.4444 4.86116L23.7917 11.1032H22.1906L25.8432 4.86116C26.2435 4.03555 26.2498 3.07236 25.8683 2.23425C25.4867 1.39614 24.7549 0.776937 23.8668 0.533009C25.0301 0.239046 26.2623 0.639337 27.0253 1.56501C27.7884 2.49068 27.9573 3.77912 27.4444 4.86116Z" fill="#3DAE2B"/>
<path d="M24.6736 29.7856C23.6416 29.7856 22.8035 28.9475 22.8035 27.9155C22.8035 26.8835 23.6416 26.0454 24.6736 26.0454C25.7056 26.0454 26.5438 26.8835 26.5438 27.9155C26.5375 28.9475 25.7056 29.7856 24.6736 29.7856ZM24.6736 27.1149C24.2296 27.1149 23.8731 27.4714 23.8731 27.9155C23.8731 28.3596 24.2296 28.7161 24.6736 28.7161C25.1177 28.7161 25.4742 28.3596 25.4742 27.9155C25.4742 27.4714 25.1115 27.1149 24.6736 27.1149Z" fill="#ECF0F1"/>
<path d="M29.4772 29.7856C28.4452 29.7856 27.6071 28.9475 27.6071 27.9155C27.6071 26.8835 28.4452 26.0454 29.4772 26.0454C30.5092 26.0454 31.3473 26.8835 31.3473 27.9155C31.341 28.9475 30.5092 29.7856 29.4772 29.7856ZM29.4772 27.1149C29.0331 27.1149 28.6766 27.4714 28.6766 27.9155C28.6766 28.3596 29.0331 28.7161 29.4772 28.7161C29.9212 28.7161 30.2777 28.3596 30.2777 27.9155C30.2777 27.4714 29.915 27.1149 29.4772 27.1149Z" fill="#ECF0F1"/>
<path d="M24.6737 29.2474C25.4094 29.2474 26.0059 28.651 26.0059 27.9152C26.0059 27.1795 25.4094 26.583 24.6737 26.583C23.9379 26.583 23.3414 27.1795 23.3414 27.9152C23.3414 28.651 23.9379 29.2474 24.6737 29.2474Z" fill="#CFD8DC"/>
<path d="M29.4771 29.2474C30.2129 29.2474 30.8094 28.651 30.8094 27.9152C30.8094 27.1795 30.2129 26.583 29.4771 26.583C28.7414 26.583 28.1449 27.1795 28.1449 27.9152C28.1449 28.651 28.7414 29.2474 29.4771 29.2474Z" fill="#CFD8DC"/>
<path d="M12.6649 24.4445H14.2661C12.4961 24.4445 11.0638 23.0122 11.0638 21.2421V11.1035H9.46262V21.2421C9.46262 23.0122 10.8949 24.4445 12.6649 24.4445Z" fill="white"/>
<path d="M4.65909 26.0455C4.65909 25.1636 5.37836 24.4443 6.26025 24.4443H4.65909C3.7772 24.4443 3.05792 25.1636 3.05792 26.0455V31.3806H4.65909V26.0455Z" fill="white"/>
<path d="M2.52002 27.1147H3.58955V31.3866H2.52002V27.1147Z" fill="white"/>
<path d="M3.05788 29.7791C3.3515 29.7791 3.58952 29.5411 3.58952 29.2475C3.58952 28.9538 3.3515 28.7158 3.05788 28.7158C2.76427 28.7158 2.52625 28.9538 2.52625 29.2475C2.52625 29.5411 2.76427 29.7791 3.05788 29.7791Z" fill="#006937"/>
<path d="M3.05791 31.9182H32.9484C33.2423 31.9182 33.48 31.6805 33.48 31.3865V26.0514C33.48 24.8693 32.5231 23.9186 31.3472 23.9186H25.9495C26.6688 23.2181 27.0754 22.2549 27.0754 21.2479V14.837H29.7461C30.9282 14.837 31.8789 13.8801 31.8789 12.7042C31.8789 11.5283 30.9219 10.5714 29.7461 10.5714H24.7299L27.9322 5.09242C28.4576 3.8978 28.3075 2.51555 27.5319 1.46479C26.7501 0.420277 25.4679 -0.130123 24.1733 0.0262406C22.8786 0.182604 21.7653 1.02071 21.2586 2.22159L18.7068 10.5714H6.26024C5.07813 10.5714 4.12744 11.5283 4.12744 12.7042C4.12744 13.8801 5.08438 14.837 6.26024 14.837H8.93093V21.2417C8.93093 22.2486 9.33747 23.2056 10.0567 23.9123C4.32758 23.9123 4.54649 23.9123 4.30256 23.9436C3.32686 24.1062 2.59507 24.9131 2.52002 25.895V27.1147C2.52002 27.4086 2.75769 27.6463 3.05166 27.6463C3.34562 27.6463 3.58329 27.4086 3.58329 27.1147C3.58329 25.9451 3.58329 26.0827 3.58329 25.9701C3.60831 25.476 3.97733 25.0632 4.47144 24.9756H31.341C31.9289 24.9756 32.4105 25.451 32.4105 26.0451V30.8486H3.05791C2.76395 30.8486 2.52627 31.0863 2.52627 31.3803C2.52627 31.6742 2.76395 31.9182 3.05791 31.9182ZM27.0754 11.6347H29.7461C30.334 11.6347 30.8156 12.11 30.8156 12.7042C30.8156 13.2921 30.3402 13.7737 29.7461 13.7737H27.0754V11.6347ZM8.92467 13.7737H6.26024C5.67231 13.7737 5.19071 13.2984 5.19071 12.7042C5.19071 12.1163 5.66606 11.6347 6.26024 11.6347H8.93093V13.7737H8.92467ZM22.2719 2.56559C22.6597 1.57111 23.6291 0.92064 24.6986 0.939404C25.7682 0.951913 26.7126 1.6274 27.0754 2.63439C27.3193 3.27235 27.2943 3.97286 27.0128 4.59206L23.4978 10.5777H19.8326L22.2719 2.56559ZM23.3351 23.9123H12.6649C11.1888 23.9123 9.9942 22.7177 9.9942 21.2417V11.6347H26.0058V21.2417C26.0058 22.7177 24.8112 23.9123 23.3351 23.9123Z" fill="#006937"/>
<path d="M20.6708 29.7856C21.2587 29.7856 21.7403 29.3103 21.7403 28.7161V27.1149C21.7403 26.527 21.2649 26.0454 20.6708 26.0454H15.3356C14.7477 26.0454 14.2661 26.5208 14.2661 27.1149V28.7161C14.2661 29.304 14.7415 29.7856 15.3356 29.7856H20.6708ZM15.3294 27.1149H20.6645V28.7161H15.3294V27.1149Z" fill="#006937"/>
<path d="M26.5375 27.9155C26.5375 26.8835 25.6994 26.0454 24.6674 26.0454C23.6354 26.0454 22.7973 26.8835 22.7973 27.9155C22.7973 28.9475 23.6354 29.7856 24.6674 29.7856C25.7056 29.7856 26.5375 28.9475 26.5375 27.9155ZM23.8731 27.9155C23.8731 27.4714 24.2296 27.1149 24.6736 27.1149C25.1177 27.1149 25.4742 27.4714 25.4742 27.9155C25.4742 28.3596 25.1177 28.7161 24.6736 28.7161C24.2296 28.7161 23.8731 28.3596 23.8731 27.9155Z" fill="#006937"/>
<path d="M31.3409 27.9155C31.3409 26.8835 30.5028 26.0454 29.4708 26.0454C28.4388 26.0454 27.6007 26.8835 27.6007 27.9155C27.6007 28.9475 28.4388 29.7856 29.4708 29.7856C30.5091 29.7856 31.3409 28.9475 31.3409 27.9155ZM28.6765 27.9155C28.6765 27.4714 29.033 27.1149 29.4771 27.1149C29.9211 27.1149 30.2777 27.4714 30.2777 27.9155C30.2777 28.3596 29.9211 28.7161 29.4771 28.7161C29.033 28.7161 28.6765 28.3596 28.6765 27.9155Z" fill="#006937"/>
<path d="M11.2138 3.25971C10.3882 4.09781 10.5758 5.6552 11.2638 6.18683C11.5453 6.59338 11.5328 7.13127 11.2263 7.51905C11.0949 7.65665 11.0449 7.85054 11.0949 8.03818C11.145 8.21956 11.2888 8.36341 11.4765 8.41345C11.6641 8.46348 11.858 8.40719 11.9893 8.26959C12.8087 7.42523 12.621 5.8741 11.933 5.34247C11.6453 4.93592 11.6641 4.39178 11.9831 4.01025C13.2027 2.77811 12.1332 0.426398 11.2826 1.07062C11.1575 1.16443 11.0762 1.30829 11.0637 1.46465C11.0512 1.62102 11.1074 1.77112 11.22 1.88371C11.5515 2.27774 11.5515 2.85941 11.2138 3.25971Z" fill="#006937"/>
<path d="M14.0158 3.25986C13.1839 4.09171 13.3653 5.6491 14.0596 6.18073C14.341 6.58728 14.3285 7.12517 14.0221 7.51295C13.8907 7.65055 13.8407 7.8507 13.8907 8.03208C13.9407 8.21346 14.0909 8.35732 14.2785 8.40735C14.4661 8.45113 14.66 8.39484 14.7976 8.25724C15.617 7.41913 15.4356 5.87426 14.7413 5.33637C14.4536 4.92982 14.4786 4.38568 14.7976 4.00415C16.0173 2.77201 14.9602 0.426551 14.0971 1.06451C13.972 1.15833 13.8907 1.30219 13.8782 1.45855C13.8657 1.61491 13.922 1.76502 14.0346 1.87761C14.3661 2.28415 14.3535 2.86582 14.0158 3.25986Z" fill="#006937"/>
<path d="M16.6803 3.25995C15.8547 4.09181 16.0361 5.64919 16.7304 6.18708C17.0118 6.59362 16.9993 7.13152 16.6928 7.5193C16.5615 7.6569 16.5114 7.85704 16.5615 8.03842C16.6115 8.21981 16.7616 8.36366 16.9493 8.4137C17.1369 8.45748 17.3308 8.40119 17.4684 8.26359C18.2877 7.42548 18.1064 5.88061 17.4121 5.34272C17.1244 4.93617 17.1494 4.39203 17.4684 4.0105C18.688 2.77835 17.631 0.432899 16.7679 1.07086C16.6428 1.16468 16.5615 1.30853 16.549 1.4649C16.5365 1.62126 16.5928 1.77137 16.7053 1.88395C17.0306 2.28424 17.0243 2.86592 16.6803 3.25995Z" fill="#006937"/>
<path d="M24.048 6.17462C24.8736 6.08706 25.5804 5.53666 25.8618 4.76109C26.3434 3.66029 26.0682 2.52197 25.2489 2.1592C24.4295 1.80269 23.41 2.37186 22.9284 3.47266C22.3155 4.86117 22.9284 6.17462 24.048 6.17462ZM23.9041 3.89797C24.1356 3.36633 24.5046 3.11615 24.736 3.11615C25.2301 3.11615 25.1113 4.51091 24.342 4.99877C23.729 5.39906 23.6227 4.53593 23.9041 3.89797Z" fill="#006937"/>
<path d="M11.5953 12.7046C11.3013 12.7046 11.0637 12.9423 11.0637 13.2362V13.7679C11.0637 14.0618 11.3013 14.2995 11.5953 14.2995C11.8893 14.2995 12.1269 14.0618 12.1269 13.7679V13.2362C12.1269 12.9423 11.8893 12.7046 11.5953 12.7046Z" fill="#006937"/>
<path d="M11.5953 15.375C11.3013 15.375 11.0637 15.6127 11.0637 15.9066V21.2418C11.0637 21.5357 11.3013 21.7734 11.5953 21.7734C11.8893 21.7734 12.1269 21.5357 12.1269 21.2418V15.9066C12.1269 15.6127 11.8893 15.375 11.5953 15.375Z" fill="#006937"/>
</g>
<defs>
<clipPath id="clip0">
<rect width="36" height="36" fill="white"/>
</clipPath>
</defs>
</svg>
