<svg width="24" height="24" viewBox="0 0 24 24" fill="none" xmlns="http://www.w3.org/2000/svg">
<circle cx="12" cy="12" r="11.5" fill="#277932" stroke="#3CAF4B"/>
<path d="M17.8419 5.40016C16.1243 4.50876 14.2639 4.03946 12.3134 4.00352C12.236 4.00141 12.1579 4 12.0798 4C7.62485 4 4 7.58883 4 12C4 12.0895 4.00213 12.1818 4.00568 12.2924C4.08592 14.5022 5.10201 16.6014 6.79408 18.0509C8.26106 19.308 10.1378 20 12.0798 20C12.1863 20 12.9922 19.969 13.2357 19.9464C14.8547 19.7985 16.404 19.3454 17.8419 18.5998L18.4 18.3102V5.68977L17.8419 5.40016Z" fill="white"/>
<path d="M16.6838 17.2708C15.2758 16.6543 13.7186 16.3111 12.0798 16.3111C11.9179 16.3111 11.7574 16.3153 11.5977 16.3217C12.2161 17.1017 12.733 17.9649 13.1285 18.8916L13.1399 18.9197C14.6509 18.7816 16.076 18.3518 17.3584 17.6866V17.5936C17.1375 17.4787 16.9124 17.3716 16.6838 17.2708Z" fill="#016B37"/>
<path d="M12.2885 5.03441C12.2189 5.03229 12.1493 5.03088 12.0797 5.03088C8.19287 5.03088 5.04163 8.15112 5.04163 11.9993C5.04163 12.0845 5.04376 12.1698 5.0466 12.2543C7.6866 12.8188 9.98719 14.2894 11.5976 16.3209C11.7574 16.3146 11.9178 16.3104 12.0797 16.3104C13.7185 16.3104 15.2757 16.6535 16.6838 17.2701C16.9124 17.3702 17.1375 17.478 17.3583 17.5921V12.5017H12.0797V15.2456H13.132C13.132 15.8213 12.6606 16.2878 12.0797 16.2878C11.4982 16.2878 11.0274 15.8213 11.0274 15.2456V8.89735C11.0274 8.32164 11.4989 7.85516 12.0797 7.85516C12.6613 7.85516 13.132 8.32164 13.132 8.89735V10.7605H17.3576V6.31407C15.8381 5.52555 14.1162 5.06753 12.2885 5.03441Z" fill="black"/>
<path d="M13.1285 18.8915C12.733 17.9649 12.2161 17.1024 11.5976 16.3217C9.98722 14.2894 7.68734 12.8195 5.04663 12.2551C5.11977 14.2577 6.04497 16.0447 7.47574 17.2708C8.70983 18.3285 10.3195 18.9684 12.0798 18.9684C12.1834 18.9684 12.2857 18.9655 12.3886 18.9613C12.6414 18.9543 12.8921 18.9423 13.1406 18.9197L13.1285 18.8915Z" fill="#3BAB49"/>
</svg>
