<svg width="24" height="24" viewBox="0 0 24 24" fill="none" xmlns="http://www.w3.org/2000/svg">
<path d="M2.295 12.707L11.273 21.707C11.662 22.097 12.298 22.098 12.687 21.709L21.708 12.709C21.8011 12.6161 21.875 12.5058 21.9254 12.3843C21.9758 12.2628 22.0018 12.1325 22.0018 12.001C22.0018 11.8695 21.9758 11.7392 21.9254 11.6177C21.875 11.4962 21.8011 11.3859 21.708 11.293L12.687 2.293C12.5941 2.20019 12.4838 2.1266 12.3624 2.07646C12.241 2.02632 12.1109 2.00061 11.9796 2.0008C11.8482 2.00098 11.7182 2.02706 11.597 2.07755C11.4758 2.12803 11.3657 2.20192 11.273 2.295L2.295 11.295C2.20223 11.3877 2.12864 11.4977 2.07843 11.6189C2.02822 11.74 2.00238 11.8699 2.00238 12.001C2.00238 12.1321 2.02822 12.262 2.07843 12.3831C2.12864 12.5043 2.20223 12.6143 2.295 12.707ZM9.002 10.001H14.002V8.001L17.002 11.001L14.002 14.001V12.001H11.002V16.001H9.002V10.001Z" fill="#F3F3F3"/>
</svg>
