<svg width="36" height="36" viewBox="0 0 36 36" fill="none" xmlns="http://www.w3.org/2000/svg">
<path d="M26.347 21.2682C24.7624 25.2739 20.5555 27.588 16.3234 26.7831C12.0914 25.9782 9.02899 22.2744 9.02899 17.9669C9.02899 17.5267 9.06043 17.0865 9.1296 16.6526C9.3497 15.8037 9.73328 15.0114 10.2552 14.3071C10.7897 13.5839 11.1796 12.7664 11.3997 11.8924C14.7011 8.29544 20.2725 7.99989 23.9323 11.2321C23.8443 12.7539 23.9323 14.2756 24.1964 15.7785C24.8001 19.212 25.6239 20.5891 26.0137 21.0733C26.0955 21.1802 26.215 21.2494 26.347 21.2682Z" fill="#3DAE2B"/>
<path d="M18.0024 8.99361C15.4934 8.99361 13.0975 10.0438 11.3997 11.8988C11.4437 11.7353 11.4814 11.5655 11.5128 11.3957L11.6889 10.3959L12.4624 5.9878C16.4366 4.15161 21.0648 4.40314 24.8189 6.66065C24.3159 8.1384 24.0203 9.67904 23.9386 11.2385C22.2973 9.79223 20.1907 8.99361 18.0024 8.99361Z" fill="#BEEAB7"/>
<path d="M28.202 26.3368C25.693 29.393 21.9514 31.16 18.0024 31.16C14.0533 31.16 10.3055 29.3867 7.80273 26.3368L8.44414 22.6896L8.92834 17.747C8.96607 17.376 9.02896 17.0113 9.12957 16.6528C9.0604 17.0867 9.02896 17.5269 9.02896 17.9671C9.02896 22.2746 12.0914 25.9784 16.3234 26.7833C20.5554 27.5882 24.7623 25.2741 26.347 21.2685C26.4036 21.281 26.4665 21.281 26.5231 21.2685L26.7683 21.2244C27.0576 21.1741 27.328 21.3691 27.3783 21.652L27.5606 22.6896L28.202 26.3368Z" fill="#BEEAB7"/>
<path d="M4.45106 33.2353C3.3003 33.0341 2.53313 31.9399 2.74064 30.7891L4.29386 21.9478L8.45043 22.6835L6.89722 31.5249C6.6897 32.6693 5.59554 33.4365 4.45106 33.2353Z" fill="#BEEAB7"/>
<path d="M4.28757 21.9601L5.52637 17.1432C5.83449 15.9296 5.81563 14.6593 5.45719 13.4583C5.14907 12.4333 5.09247 11.3454 5.27483 10.289L5.45091 9.29541L9.09184 9.94311L8.05427 9.76075L11.6952 10.4022L11.5191 11.3957C11.3305 12.4521 10.9029 13.4457 10.2678 14.3072C9.52574 15.3133 9.06669 16.5018 8.94092 17.7469L8.45672 22.6958L4.28757 21.9601Z" fill="#BEEAB7"/>
<path d="M27.5732 22.6898L31.7298 21.9541L33.2893 30.7892C33.4905 31.9399 32.7233 33.0341 31.5789 33.2353C30.4281 33.4366 29.3339 32.6694 29.1327 31.5249L27.5732 22.6898Z" fill="#BEEAB7"/>
<path d="M33.2766 30.795L31.7171 21.96L30.1828 22.2304L31.692 30.795C31.8681 31.776 31.3336 32.7444 30.4092 33.1154C31.1198 33.4047 31.9309 33.2852 32.5283 32.801C33.1257 32.3231 33.415 31.5496 33.2766 30.795Z" fill="#6DC65D"/>
<path d="M27.5607 22.6894L27.3784 21.6519C27.3532 21.5135 27.2777 21.394 27.1583 21.3123C27.0388 21.2305 26.9004 21.1991 26.7621 21.2243L26.5169 21.2683C26.3282 21.2997 26.1333 21.2305 26.0138 21.0796C25.6176 20.5891 24.8002 19.2183 24.1965 15.7849C22.637 6.94349 27.6865 -0.910619 29.0636 6.8806L31.7236 21.9537L27.5607 22.6894Z" fill="#BEEAB7"/>
<path d="M29.0636 6.88069C28.5228 3.83086 27.4287 3.18316 26.3848 4.04466C26.8376 4.50371 27.2211 5.41551 27.4853 6.88069L30.1452 21.9538L27.523 22.4191L27.5733 22.6895L31.7299 21.9538L29.0636 6.88069Z" fill="#6DC65D"/>
<path d="M18.0025 15.2757C17.4617 14.4959 16.5751 14.0243 15.6255 14.0117C14.217 14.0117 13.2486 15.2757 13.2486 16.7597C13.2486 18.5707 14.7263 20.3692 17.8516 22.4129C17.9396 22.4695 18.0591 22.4695 18.1472 22.4129C21.2725 20.3755 22.7502 18.5707 22.7502 16.7597C22.7502 15.2757 21.7818 14.0117 20.3732 14.0117C19.43 14.0243 18.5433 14.4959 18.0025 15.2757Z" fill="#BEEAB7"/>
<path d="M4.31275 30.7952C6.18038 20.1868 5.55155 23.2052 7.10476 17.1433C7.41289 15.9296 7.39402 14.6594 7.03559 13.4583C6.67087 12.1881 6.65829 10.8487 6.98528 9.56587L5.44465 9.30176C5.21198 10.616 4.94158 11.7479 5.45093 13.4646C5.80937 14.6657 5.83452 15.9359 5.52011 17.1496C3.96689 23.2115 4.59572 20.1931 2.72809 30.8015C2.58975 31.5561 2.87901 32.3296 3.4764 32.8075C4.07379 33.2854 4.88498 33.4112 5.59556 33.1219C4.67118 32.7383 4.14296 31.7762 4.31275 30.7952Z" fill="white"/>
<path d="M3.03619 26.035L3.77193 21.8784L4.8095 22.0608L4.08005 26.2174L3.03619 26.035Z" fill="white"/>
<path d="M3.9291 24.5633C3.63984 24.5633 3.40088 24.3306 3.40088 24.0351C3.40088 23.7395 3.63355 23.5068 3.9291 23.5068H3.93539C4.22465 23.5068 4.46361 23.7458 4.46361 24.0351C4.45732 24.3306 4.22465 24.5633 3.9291 24.5633Z" fill="#006937"/>
<path d="M32.2392 21.8657L29.5792 6.79258C29.007 3.52894 27.831 3.03217 26.9444 3.18938C25.9508 3.36545 25.1271 4.40302 24.5297 5.89964C21.0271 4.00057 16.8705 3.71759 13.1478 5.13247L13.305 4.2521C13.3428 4.06345 13.2736 3.86851 13.129 3.74904C12.9843 3.62327 12.7831 3.59183 12.6007 3.65471C12.4184 3.71759 12.2926 3.88109 12.2612 4.06974L11.255 9.78582L10.2175 9.60346L11.2236 3.88738C11.2613 3.69873 11.1922 3.50379 11.0475 3.37803C10.9029 3.25226 10.7017 3.22082 10.5193 3.2837C10.337 3.35287 10.2112 3.51008 10.1797 3.69873L9.17362 9.41481L8.13604 9.23245L9.14217 3.51637C9.18619 3.23339 8.99754 2.96928 8.71457 2.91898C8.4316 2.86867 8.1612 3.05103 8.1046 3.33401L7.09218 9.05009L6.05461 8.87401L7.06074 3.15793C7.10476 2.96928 7.03559 2.77435 6.89096 2.64858C6.74633 2.52281 6.53881 2.48508 6.36274 2.55426C6.18038 2.62343 6.05461 2.78692 6.02946 2.97557L4.929 9.21358L4.75293 10.2071C4.5517 11.3453 4.62088 12.5087 4.94787 13.6154C5.27486 14.7221 5.30001 15.8981 5.01075 17.0174L3.77195 21.8342V21.8531C3.77195 21.8594 3.76566 21.8657 3.76566 21.872C3.76566 21.8971 3.76566 21.9286 3.76566 21.9537C3.75938 21.9914 3.75938 22.0229 3.76566 22.0606C3.77195 22.0921 3.78453 22.1235 3.79711 22.1549C3.80968 22.1864 3.82226 22.2178 3.83484 22.243C3.8537 22.2681 3.87885 22.2933 3.90401 22.3184C3.92287 22.3436 3.94803 22.3687 3.97318 22.3876C4.00462 22.4065 4.03606 22.419 4.0675 22.4316C4.09266 22.4442 4.11781 22.4568 4.14925 22.4694C4.15554 22.4694 4.16812 22.4694 4.17441 22.4756C4.18698 22.4819 4.18069 22.4819 4.18698 22.4819L7.82792 23.1233L7.27455 26.2801V26.2864L6.36274 31.4365C6.21182 32.298 5.38805 32.8702 4.52655 32.7193C3.67134 32.5684 3.09282 31.7509 3.24373 30.8894L4.0675 26.2109C4.11781 25.9216 3.92916 25.6512 3.6399 25.6009C3.35064 25.5506 3.08024 25.7393 3.02993 26.0285L2.20616 30.7008C2.03009 31.6377 2.36337 32.5935 3.09281 33.2098C3.81597 33.8261 4.8221 34.0021 5.71504 33.6688C6.60798 33.3419 7.25568 32.5558 7.4066 31.6126L8.13604 27.4874C10.7205 30.1788 14.2797 31.688 18.0024 31.688C21.7251 31.688 25.2906 30.1725 27.8751 27.4937L28.6045 31.6189C28.8246 32.8765 29.9188 33.7946 31.1953 33.8009C31.975 33.8009 32.7171 33.455 33.2201 32.8577C33.7232 32.2603 33.937 31.4742 33.7987 30.7008L32.2392 21.8657ZM27.133 4.22695C27.5418 4.16406 28.1643 4.83063 28.5416 6.97494L31.1073 21.5261L27.9883 22.0732L27.8939 21.5513C27.8499 21.2746 27.6927 21.0293 27.46 20.8658C27.2274 20.7023 26.9444 20.6395 26.6677 20.6898L26.4288 20.7464C26.1143 20.3565 25.3157 19.08 24.7183 15.6905C24.4605 14.2379 24.3725 12.7602 24.4605 11.2887C24.4668 11.2573 24.4668 11.2321 24.4668 11.2007C24.712 7.22648 26.1772 4.39673 27.133 4.22695ZM9.64524 16.7973C9.84647 16.0113 10.1986 15.2755 10.6828 14.6278C11.2236 13.8921 11.6261 13.0683 11.865 12.188C14.9274 8.91803 20.0147 8.62877 23.4355 11.5214C23.3601 12.9803 23.4418 14.4392 23.6808 15.8792C24.297 19.3818 25.1522 20.847 25.605 21.4129C25.6238 21.4381 25.6553 21.4569 25.6804 21.4821C24.0329 25.0916 20.0838 27.0661 16.204 26.2235C12.3241 25.3808 9.5572 21.9411 9.5572 17.9669C9.5572 17.577 9.58864 17.1809 9.64524 16.7973ZM18.0024 5.30225C20.1656 5.30225 22.291 5.85562 24.1775 6.91206C23.8568 7.99994 23.643 9.11926 23.5298 10.2512C20.1279 7.805 15.5185 7.88675 12.2109 10.465L12.934 6.37126C14.5313 5.66068 16.2543 5.29596 18.0024 5.30225ZM4.94158 21.5387L6.03575 17.2752C6.36903 15.9735 6.34387 14.6027 5.96029 13.3073C5.67731 12.3577 5.62072 11.3579 5.7905 10.3832L5.87225 9.9053L7.43175 10.182H7.43804L8.99754 10.4587L9.51947 10.553L11.079 10.8297L10.9972 11.3076C10.8212 12.2823 10.425 13.2004 9.84018 13.999C9.03527 15.0806 8.54478 16.3571 8.41273 17.6965L7.97884 22.0732L4.94158 21.5387ZM18.0024 30.6316C14.2923 30.6379 10.7646 29.0092 8.36242 26.1795L8.95981 22.7775C8.95981 22.7712 8.95981 22.7649 8.95981 22.7586C8.95981 22.7523 8.9661 22.746 8.9661 22.7398L9.11073 21.2872C10.4627 24.9155 13.8773 27.3554 17.7446 27.4623C21.6119 27.5692 25.1585 25.318 26.6992 21.7713L26.8564 21.7462L27.0387 22.7838L27.6361 26.1857C25.2403 29.0155 21.7125 30.6379 18.0024 30.6316ZM31.472 32.7193C31.057 32.7948 30.6356 32.7004 30.2898 32.4552C29.9439 32.2162 29.7113 31.8452 29.6358 31.4302L28.7303 26.2801L28.1706 23.1171L31.2896 22.57L32.7548 30.8894C32.8303 31.3044 32.7359 31.7258 32.4907 32.0716C32.2517 32.4175 31.887 32.6501 31.472 32.7193Z" fill="#006937"/>
<path d="M17.5684 22.853C17.8326 23.0291 18.1784 23.0291 18.4425 22.853C21.7439 20.6961 23.2845 18.7593 23.2845 16.7596C23.2845 14.9234 22.008 13.4834 20.3793 13.4834C19.4864 13.4834 18.6375 13.8418 18.0023 14.4644C17.3735 13.8355 16.5183 13.4834 15.6254 13.4834C13.9967 13.4834 12.7202 14.9234 12.7202 16.7596C12.7264 18.7593 14.2608 20.6898 17.5684 22.853ZM15.6254 14.5335C16.3925 14.5461 17.1157 14.9234 17.5559 15.5585C17.6502 15.7095 17.82 15.8038 18.0023 15.8038C18.1847 15.8038 18.3482 15.7095 18.4488 15.5585C18.889 14.9297 19.6121 14.5461 20.3793 14.5335C21.4295 14.5335 22.2281 15.4894 22.2281 16.7596C22.2281 18.3443 20.8824 19.9729 18.0086 21.8783C15.1286 19.9729 13.7892 18.3443 13.7892 16.7596C13.7829 15.4894 14.5752 14.5335 15.6254 14.5335Z" fill="#006937"/>
</svg>
