<svg width="24" height="24" viewBox="0 0 24 24" fill="none" xmlns="http://www.w3.org/2000/svg">
<path d="M10.956 9.5496V10.6512H10.1496V11.9976H10.956V16H12.6136V11.9976H13.7256C13.7256 11.9976 13.8304 11.352 13.8808 10.6456H12.62V9.7256C12.62 9.5872 12.8008 9.4024 12.98 9.4024H13.8824V8H12.6544C10.9152 8 10.956 9.348 10.956 9.5496Z" fill="#FCFDFE"/>
<path d="M12 18.4C13.6974 18.4 15.3253 17.7257 16.5255 16.5255C17.7257 15.3253 18.4 13.6974 18.4 12C18.4 10.3026 17.7257 8.67475 16.5255 7.47452C15.3253 6.27428 13.6974 5.6 12 5.6C10.3026 5.6 8.67475 6.27428 7.47452 7.47452C6.27428 8.67475 5.6 10.3026 5.6 12C5.6 13.6974 6.27428 15.3253 7.47452 16.5255C8.67475 17.7257 10.3026 18.4 12 18.4ZM12 20C7.5816 20 4 16.4184 4 12C4 7.5816 7.5816 4 12 4C16.4184 4 20 7.5816 20 12C20 16.4184 16.4184 20 12 20Z" fill="#FCFDFE"/>
</svg>
