<svg width="44" height="44" viewBox="0 0 44 44" fill="none" xmlns="http://www.w3.org/2000/svg">
<circle cx="22" cy="22" r="21.5" fill="white" stroke="#C4C4C4"/>
<path d="M34.3175 26.5375V22.906H37.9505V20.1835H34.3175V16.552H31.595V20.1835H27.9635V22.906H31.595V26.5375H34.3175ZM17.078 16.453C18.7775 16.453 19.922 17.179 20.573 17.797L23.156 15.292C21.584 13.822 19.5335 12.922 17.078 12.922C12.071 12.9205 8 16.9885 8 22C8 27.0115 12.071 31.0795 17.078 31.0795C22.3175 31.0795 25.796 27.394 25.796 22.21C25.796 21.4555 25.7 20.92 25.5665 20.35H17.0735V23.734H22.0715C21.8345 25.1605 20.555 27.568 17.078 27.568C14.0735 27.568 11.6225 25.0705 11.6225 22.012C11.6225 18.949 14.0735 16.453 17.078 16.453Z" fill="#221F20"/>
</svg>
