<svg width="24" height="24" viewBox="0 0 24 24" fill="none" xmlns="http://www.w3.org/2000/svg">
<path d="M18.9929 5.45545C18.5454 4.32351 17.4777 3.59263 16.2726 3.59263H16.1016V3H7.89845V3.59259H7.72735C6.52229 3.59259 5.45455 4.32351 5.00708 5.45541L3.12668 10.1111H2V11.2963H2.84286C3.11234 11.2963 3.34584 11.4809 3.41163 11.7448L5.35042 19.4317C5.54609 20.224 6.24761 20.7778 7.05559 20.7778H16.9444C17.7524 20.7778 18.493 20.2239 18.6886 19.4311L20.5884 11.7454C20.6542 11.4809 20.8876 11.2963 21.1571 11.2963H22V10.1111H20.8733L18.9929 5.45545ZM9.07032 18.4074H7.89845V12.4815H9.07032V18.4074ZM12.5859 18.4074H11.4141V12.4815H12.5859V18.4074ZM16.1016 18.4074H14.9297V12.4815H16.1016V18.4074ZM6.09545 5.89527C6.36379 5.21647 7.00469 4.77781 7.72735 4.77781H7.89845V5.37037H16.1016V4.77777H16.2727C16.9954 4.77777 17.6363 5.21643 17.9046 5.89523L19.6111 10.1111H4.38894L6.09545 5.89527Z" fill="#F3F3F3"/>
</svg>
