<svg width="36" height="36" viewBox="0 0 36 36" fill="none" xmlns="http://www.w3.org/2000/svg">
<circle cx="18" cy="18" r="18" fill="#F3F3F3"/>
<path d="M26.3752 18.6675L22.29 15.75L26.3752 12.8317L28.263 13.461L28.737 12.0382L27 11.4592V9.75H25.5V11.6137L21.75 14.2928V10.0252L23.6662 8.748L22.8337 7.5L21 8.7225L19.1663 7.5L18.3337 8.748L20.25 10.0252V14.2928L18 12.6855V14.529L19.71 15.75L18 16.971V18.8145L20.25 17.2072V22.2772L22.8337 24L23.6662 22.752L21.75 21.4747V17.2072L25.5 19.8862V21.75H27V20.0408L28.737 19.461L28.263 18.0382L26.3752 18.6675Z" fill="#171717"/>
<path d="M15 23.25C15 23.8467 14.7629 24.419 14.341 24.841C13.919 25.2629 13.3467 25.5 12.75 25.5C12.1533 25.5 11.581 25.2629 11.159 24.841C10.7371 24.419 10.5 23.8467 10.5 23.25H15Z" fill="#171717"/>
<path d="M12.75 28.5C11.7165 28.5012 10.7057 28.1969 9.8445 27.6255C8.9833 27.0541 8.31011 26.241 7.90948 25.2883C7.50884 24.3356 7.39862 23.2858 7.59264 22.2706C7.78667 21.2555 8.2763 20.3203 9.00004 19.5825V11.25C9.00004 10.2554 9.39513 9.30161 10.0984 8.59835C10.8017 7.89509 11.7555 7.5 12.75 7.5C13.7446 7.5 14.6984 7.89509 15.4017 8.59835C16.105 9.30161 16.5 10.2554 16.5 11.25V19.5825C17.2238 20.3203 17.7134 21.2555 17.9074 22.2706C18.1015 23.2858 17.9912 24.3356 17.5906 25.2883C17.19 26.241 16.5168 27.0541 15.6556 27.6255C14.7944 28.1969 13.7836 28.5012 12.75 28.5ZM12.75 9C12.1535 9.0006 11.5815 9.23784 11.1597 9.65967C10.7379 10.0815 10.5006 10.6534 10.5 11.25V20.2373L10.251 20.4615C9.6847 20.9677 9.28543 21.6339 9.10608 22.372C8.92672 23.1101 8.97575 23.8853 9.24666 24.5949C9.51757 25.3046 9.99759 25.9152 10.6232 26.346C11.2488 26.7768 11.9905 27.0075 12.75 27.0075C13.5096 27.0075 14.2513 26.7768 14.8769 26.346C15.5025 25.9152 15.9825 25.3046 16.2534 24.5949C16.5243 23.8853 16.5734 23.1101 16.394 22.372C16.2147 21.6339 15.8154 20.9677 15.249 20.4615L15 20.2373V11.25C14.9994 10.6534 14.7622 10.0815 14.3404 9.65967C13.9185 9.23784 13.3466 9.0006 12.75 9Z" fill="#171717"/>
</svg>
