<svg width="24" height="24" viewBox="0 0 28 28" fill="none" xmlns="http://www.w3.org/2000/svg">
<path d="M24.125 6.125H3.875C3.57663 6.125 3.29048 6.24353 3.0795 6.45451C2.86853 6.66548 2.75 6.95163 2.75 7.25V11.75H3.75463C4.87513 11.75 5.91463 12.5161 6.09463 13.622C6.14946 13.9449 6.13317 14.2759 6.04689 14.5919C5.9606 14.9079 5.80641 15.2012 5.59506 15.4514C5.38372 15.7017 5.12031 15.9027 4.82323 16.0407C4.52614 16.1786 4.20254 16.25 3.875 16.25H2.75V20.75C2.75 21.0484 2.86853 21.3345 3.0795 21.5455C3.29048 21.7565 3.57663 21.875 3.875 21.875H24.125C24.4234 21.875 24.7095 21.7565 24.9205 21.5455C25.1315 21.3345 25.25 21.0484 25.25 20.75V16.25H24.125C23.7975 16.25 23.4739 16.1786 23.1768 16.0407C22.8797 15.9027 22.6163 15.7017 22.4049 15.4514C22.1936 15.2012 22.0394 14.9079 21.9531 14.5919C21.8668 14.2759 21.8505 13.9449 21.9054 13.622C22.0854 12.5161 23.1249 11.75 24.2454 11.75H25.25V7.25C25.25 6.95163 25.1315 6.66548 24.9205 6.45451C24.7095 6.24353 24.4234 6.125 24.125 6.125ZM10.625 10.625C10.9234 10.625 11.2095 10.7435 11.4205 10.9545C11.6315 11.1655 11.75 11.4516 11.75 11.75C11.75 12.0484 11.6315 12.3345 11.4205 12.5455C11.2095 12.7565 10.9234 12.875 10.625 12.875C10.3266 12.875 10.0405 12.7565 9.82951 12.5455C9.61853 12.3345 9.5 12.0484 9.5 11.75C9.5 11.4516 9.61853 11.1655 9.82951 10.9545C10.0405 10.7435 10.3266 10.625 10.625 10.625ZM9.725 17.825L16.475 8.825L18.275 10.175L11.525 19.175L9.725 17.825ZM17.375 17.375C17.0766 17.375 16.7905 17.2565 16.5795 17.0455C16.3685 16.8345 16.25 16.5484 16.25 16.25C16.25 15.9516 16.3685 15.6655 16.5795 15.4545C16.7905 15.2435 17.0766 15.125 17.375 15.125C17.6734 15.125 17.9595 15.2435 18.1705 15.4545C18.3815 15.6655 18.5 15.9516 18.5 16.25C18.5 16.5484 18.3815 16.8345 18.1705 17.0455C17.9595 17.2565 17.6734 17.375 17.375 17.375Z" fill="#F3F3F3"/>
</svg>
