<svg width="24" height="24" viewBox="0 0 24 24" fill="none" xmlns="http://www.w3.org/2000/svg">
<path d="M3.9 4.88889V9.33333H5.7V5.77778H9.3V4H4.8C4.56131 4 4.33239 4.09365 4.1636 4.26035C3.99482 4.42705 3.9 4.65314 3.9 4.88889ZM20.1 9.33333V4.88889C20.1 4.65314 20.0052 4.42705 19.8364 4.26035C19.6676 4.09365 19.4387 4 19.2 4H14.7V5.77778H18.3V9.33333H20.1ZM18.3 18.2222H14.7V20H19.2C19.4387 20 19.6676 19.9064 19.8364 19.7397C20.0052 19.573 20.1 19.3469 20.1 19.1111V14.6667H18.3V18.2222ZM9.3 20V18.2222H5.7V14.6667H3.9V19.1111C3.9 19.3469 3.99482 19.573 4.1636 19.7397C4.33239 19.9064 4.56131 20 4.8 20H9.3ZM3 11.1111H21V12.8889H3V11.1111Z" fill="#F3F3F3"/>
</svg>
