<svg width="24" height="24" viewBox="0 0 24 24" fill="none" xmlns="http://www.w3.org/2000/svg">
<path d="M16.5 9.75C16.5 8.55653 16.0259 7.41193 15.182 6.56802C14.3381 5.72411 13.1935 5.25 12 5.25C10.8065 5.25 9.66193 5.72411 8.81802 6.56802C7.97411 7.41193 7.5 8.55653 7.5 9.75C7.5 15 5.25 16.5 5.25 16.5H18.75C18.75 16.5 16.5 15 16.5 9.75Z" stroke="#585962" stroke-linecap="round" stroke-linejoin="round"/>
<path d="M13.2976 18C13.1658 18.2273 12.9765 18.416 12.7488 18.5471C12.5211 18.6783 12.2629 18.7473 12.0001 18.7473C11.7374 18.7473 11.4792 18.6783 11.2515 18.5471C11.0238 18.416 10.8345 18.2273 10.7026 18" stroke="#585962" stroke-linecap="round" stroke-linejoin="round"/>
</svg>
