<svg width="24" height="24" viewBox="0 0 24 24" fill="none" xmlns="http://www.w3.org/2000/svg">
<path d="M6.27273 6H21V15.75H6.27273V6ZM13.6364 8.4375C14.2873 8.4375 14.9117 8.69431 15.372 9.15143C15.8323 9.60855 16.0909 10.2285 16.0909 10.875C16.0909 11.5215 15.8323 12.1415 15.372 12.5986C14.9117 13.0557 14.2873 13.3125 13.6364 13.3125C12.9854 13.3125 12.3611 13.0557 11.9007 12.5986C11.4404 12.1415 11.1818 11.5215 11.1818 10.875C11.1818 10.2285 11.4404 9.60855 11.9007 9.15143C12.3611 8.69431 12.9854 8.4375 13.6364 8.4375ZM9.54545 7.625C9.54545 8.05598 9.37305 8.4693 9.06617 8.77405C8.7593 9.07879 8.34308 9.25 7.90909 9.25V12.5C8.34308 12.5 8.7593 12.6712 9.06617 12.976C9.37305 13.2807 9.54545 13.694 9.54545 14.125H17.7273C17.7273 13.694 17.8997 13.2807 18.2066 12.976C18.5134 12.6712 18.9296 12.5 19.3636 12.5V9.25C18.9296 9.25 18.5134 9.07879 18.2066 8.77405C17.8997 8.4693 17.7273 8.05598 17.7273 7.625H9.54545ZM3 9.25H4.63636V17.375H17.7273V19H3V9.25Z" fill="white"/>
</svg>
