<svg width="24" height="24" viewBox="0 0 24 24" fill="none" xmlns="http://www.w3.org/2000/svg">
<path fill-rule="evenodd" clip-rule="evenodd" d="M9.55684 2.47973C9.62532 2.19779 9.87147 2 10.1538 2H13.8462C14.1285 2 14.3747 2.19779 14.4432 2.47973L14.942 4.53333H19.3846C19.7245 4.53333 20 4.81689 20 5.16667C20 5.51645 19.7245 5.8 19.3846 5.8H18.7201L17.5363 20.4193C17.5098 20.7475 17.2431 21 16.9231 21H7.07692C6.75687 21 6.49024 20.7475 6.46366 20.4193L5.27992 5.8H4.61538C4.27552 5.8 4 5.51645 4 5.16667C4 4.81689 4.27552 4.53333 4.61538 4.53333H9.05798L9.55684 2.47973ZM6.51495 5.8L7.64316 19.7333H16.3568L17.485 5.8H14.4744C14.4655 5.8002 14.4566 5.8002 14.4477 5.8H9.55226C9.5434 5.8002 9.53451 5.8002 9.52559 5.8H6.51495ZM10.3266 4.53333H13.6734L13.3657 3.26667H10.6343L10.3266 4.53333ZM8.87197 8.33552C9.21067 8.30647 9.50811 8.5655 9.53634 8.91407L10.1517 16.5141C10.1799 16.8626 9.92826 17.1688 9.58957 17.1978C9.25087 17.2269 8.95343 16.9678 8.9252 16.6193L8.30982 9.01926C8.28159 8.67069 8.53328 8.36457 8.87197 8.33552ZM15.128 8.33552C15.4667 8.36457 15.7184 8.67069 15.6902 9.01926L15.0748 16.6193C15.0466 16.9678 14.7491 17.2269 14.4104 17.1978C14.0717 17.1688 13.8201 16.8626 13.8483 16.5141L14.4637 8.91407C14.4919 8.5655 14.7893 8.30647 15.128 8.33552ZM12 8.33333C12.3399 8.33333 12.6154 8.61689 12.6154 8.96667V16.5667C12.6154 16.9164 12.3399 17.2 12 17.2C11.6601 17.2 11.3846 16.9164 11.3846 16.5667V8.96667C11.3846 8.61689 11.6601 8.33333 12 8.33333Z" fill="#585962"/>
</svg>
