<svg width="24" height="24" viewBox="0 0 24 24" fill="none" xmlns="http://www.w3.org/2000/svg">
<path d="M21 12.0625C21 12.8243 19.898 13.4267 19.7102 14.1282C19.5154 14.8546 20.1602 15.9282 19.7953 16.5625C19.4232 17.2074 18.1654 17.1826 17.6445 17.707C17.1201 18.2279 17.1449 19.4857 16.5 19.8578C15.8657 20.2263 14.7921 19.5814 14.0657 19.7727C13.3642 19.9605 12.7583 21.0625 12 21.0625C11.2382 21.0625 10.6358 19.9605 9.93425 19.7727C9.20787 19.5779 8.13425 20.2227 7.5 19.8578C6.85512 19.4857 6.87992 18.2279 6.35551 17.707C5.83465 17.1826 4.57677 17.2074 4.20472 16.5625C3.83622 15.9282 4.4811 14.8546 4.28976 14.1282C4.10197 13.4267 3 12.8243 3 12.0625C3 11.3007 4.10197 10.6983 4.28976 9.99675C4.48465 9.27037 3.83976 8.19675 4.20472 7.5625C4.57677 6.91762 5.83465 6.94242 6.35551 6.41801C6.87992 5.89715 6.85512 4.63927 7.5 4.26722C8.13425 3.89872 9.20787 4.5436 9.93425 4.35226C10.6358 4.16447 11.2382 3.0625 12 3.0625C12.7618 3.0625 13.3642 4.16447 14.0657 4.35226C14.7921 4.54715 15.8657 3.90226 16.5 4.26722C17.1449 4.63927 17.1201 5.89715 17.6445 6.41801C18.1689 6.94242 19.4232 6.91762 19.7953 7.5625C20.1638 8.19675 19.5189 9.27037 19.7102 9.99675C19.898 10.6983 21 11.3007 21 12.0625Z" fill="url(#paint0_linear)"/>
<path d="M11.9997 18.6528C15.6396 18.6528 18.5903 15.7021 18.5903 12.0622C18.5903 8.42237 15.6396 5.47168 11.9997 5.47168C8.35987 5.47168 5.40918 8.42237 5.40918 12.0622C5.40918 15.7021 8.35987 18.6528 11.9997 18.6528Z" fill="url(#paint1_linear)"/>
<path d="M11.9999 18.7416C8.31844 18.7416 5.3208 15.7439 5.3208 12.0624C5.3208 8.38094 8.31844 5.3833 11.9999 5.3833C15.6814 5.3833 18.6791 8.38094 18.6791 12.0624C18.6791 15.7439 15.6814 18.7416 11.9999 18.7416ZM11.9999 5.56047C8.41411 5.56047 5.49797 8.47661 5.49797 12.0624C5.49797 15.6483 8.41411 18.5644 11.9999 18.5644C15.5858 18.5644 18.5019 15.6483 18.5019 12.0624C18.5019 8.47661 15.5858 5.56047 11.9999 5.56047Z" fill="url(#paint2_linear)"/>
<path d="M11.4437 10.4573C11.4437 10.7797 11.3657 11.0738 11.2098 11.3431C11.0539 11.6124 10.8413 11.825 10.5685 11.9809C10.2957 12.1368 10.0016 12.2112 9.67912 12.2112C9.35668 12.2112 9.05904 12.1333 8.78975 11.9809C8.52046 11.825 8.30786 11.616 8.15195 11.3431C7.99605 11.0738 7.91455 10.7762 7.91455 10.4573C7.91455 10.1349 7.9925 9.84077 8.15195 9.57148C8.30786 9.30219 8.52046 9.08959 8.78975 8.93368C9.05904 8.77778 9.35314 8.70337 9.67912 8.70337C10.0016 8.70337 10.2957 8.78132 10.5685 8.93723C10.8413 9.09313 11.0539 9.30573 11.2098 9.57148C11.3657 9.83723 11.4437 10.1313 11.4437 10.4573ZM9.67912 11.0242C9.83503 11.0242 9.96613 10.9711 10.0795 10.8612C10.1929 10.7514 10.2496 10.6168 10.2496 10.4573C10.2496 10.3014 10.1929 10.1668 10.0831 10.0534C9.97322 9.94353 9.83857 9.88683 9.67912 9.88683C9.51967 9.88683 9.38503 9.93998 9.27873 10.0498C9.17243 10.1597 9.11928 10.2943 9.11928 10.4538C9.11928 10.6132 9.17243 10.7479 9.28227 10.8577C9.39211 10.9711 9.52321 11.0242 9.67912 11.0242ZM13.6972 8.57227H14.5299L10.3134 15.4817H9.48069L13.6972 8.57227ZM16.0854 13.5931C16.0854 13.9156 16.0075 14.2097 15.8516 14.479C15.6957 14.7482 15.4831 14.9608 15.2102 15.1168C14.9374 15.2727 14.6433 15.3471 14.3209 15.3471C13.9984 15.3471 13.7079 15.2691 13.4386 15.1168C13.1728 14.9608 12.9602 14.7518 12.8043 14.4825C12.6484 14.2132 12.5705 13.9191 12.5705 13.5931C12.5705 13.2707 12.6484 12.9731 12.8008 12.7038C12.9567 12.4345 13.1693 12.2219 13.4386 12.066C13.7114 11.9101 14.002 11.8286 14.3173 11.8286C14.6398 11.8286 14.9374 11.9065 15.2067 12.066C15.476 12.2219 15.6886 12.438 15.8445 12.7073C16.0075 12.9766 16.0854 13.2742 16.0854 13.5931ZM14.3315 14.1636C14.4874 14.1636 14.622 14.1105 14.7283 14.0006C14.8346 13.8943 14.8913 13.7561 14.8913 13.5931C14.8913 13.4301 14.8382 13.2955 14.7283 13.1857C14.622 13.0794 14.4874 13.0227 14.3315 13.0227C14.1756 13.0227 14.0409 13.0758 13.9311 13.1857C13.8213 13.2955 13.7681 13.4301 13.7681 13.5896C13.7681 13.7455 13.8248 13.8801 13.9346 13.9935C14.0445 14.1069 14.1756 14.1636 14.3315 14.1636Z" fill="url(#paint3_linear)"/>
<defs>
<linearGradient id="paint0_linear" x1="11.6093" y1="-6.58087" x2="12.168" y2="20.0764" gradientUnits="userSpaceOnUse">
<stop stop-color="#54B948"/>
<stop offset="0.3764" stop-color="#00A651"/>
<stop offset="1" stop-color="#005826"/>
</linearGradient>
<linearGradient id="paint1_linear" x1="12.1486" y1="5.19115" x2="11.5799" y2="31.4394" gradientUnits="userSpaceOnUse">
<stop stop-color="#54B948"/>
<stop offset="0.3764" stop-color="#00A651"/>
<stop offset="1" stop-color="#005826"/>
</linearGradient>
<linearGradient id="paint2_linear" x1="12.1488" y1="5.19136" x2="11.5801" y2="31.4396" gradientUnits="userSpaceOnUse">
<stop stop-color="#54B948"/>
<stop offset="0.3764" stop-color="#00A651"/>
<stop offset="1" stop-color="#005826"/>
</linearGradient>
<linearGradient id="paint3_linear" x1="12" y1="15.5764" x2="12" y2="8.88189" gradientUnits="userSpaceOnUse">
<stop stop-color="#FFFFB3"/>
<stop offset="1" stop-color="#ACE184"/>
</linearGradient>
</defs>
</svg>
