<svg width="24" height="24" viewBox="0 0 24 24" fill="none" xmlns="http://www.w3.org/2000/svg">
<path d="M10 10.8018H12C12.2122 10.8018 12.4157 10.7176 12.5657 10.5676C12.7157 10.4176 12.8 10.2141 12.8 10.002C12.8 9.78986 12.7157 9.58641 12.5657 9.43641C12.4157 9.28641 12.2122 9.20215 12 9.20215H11.2V8.80223C11.2 8.59009 11.1157 8.38665 10.9657 8.23665C10.8157 8.08665 10.6122 8.00238 10.4 8.00238C10.1878 8.00238 9.98435 8.08665 9.83432 8.23665C9.68429 8.38665 9.6 8.59009 9.6 8.80223V9.24214C9.11394 9.34082 8.68189 9.61654 8.38773 10.0158C8.09357 10.415 7.95828 10.9093 8.00812 11.4027C8.05797 11.8961 8.28939 12.3533 8.65747 12.6857C9.02555 13.0181 9.50402 13.2018 10 13.2014H10.8C10.9061 13.2014 11.0078 13.2435 11.0828 13.3185C11.1579 13.3935 11.2 13.4952 11.2 13.6013C11.2 13.7073 11.1579 13.8091 11.0828 13.8841C11.0078 13.9591 10.9061 14.0012 10.8 14.0012H8.8C8.58783 14.0012 8.38435 14.0855 8.23432 14.2355C8.08429 14.3855 8.00001 14.5889 8.00001 14.801C8.00001 15.0132 8.08429 15.2166 8.23432 15.3666C8.38435 15.5166 8.58783 15.6009 8.8 15.6009H9.6V16.0008C9.6 16.2129 9.68429 16.4164 9.83432 16.5664C9.98435 16.7164 10.1878 16.8006 10.4 16.8006C10.6122 16.8006 10.8157 16.7164 10.9657 16.5664C11.1157 16.4164 11.2 16.2129 11.2 16.0008V15.5609C11.6861 15.4622 12.1181 15.1865 12.4123 14.7872C12.7064 14.388 12.8417 13.8937 12.7919 13.4003C12.742 12.9069 12.5106 12.4497 12.1425 12.1173C11.7745 11.7849 11.296 11.6012 10.8 11.6017H10C9.89392 11.6017 9.79218 11.5595 9.71716 11.4845C9.64215 11.4095 9.6 11.3078 9.6 11.2017C9.6 11.0957 9.64215 10.994 9.71716 10.919C9.79218 10.844 9.89392 10.8018 10 10.8018ZM19.2 12.0016H16.8V4.80302C16.8006 4.66208 16.7639 4.52349 16.6936 4.4013C16.6234 4.2791 16.5221 4.17763 16.4 4.10716C16.2784 4.03696 16.1404 4 16 4C15.8596 4 15.7216 4.03696 15.6 4.10716L13.2 5.48288L10.8 4.10716C10.6784 4.03696 10.5404 4 10.4 4C10.2596 4 10.1216 4.03696 10 4.10716L7.60001 5.48288L5.20001 4.10716C5.07839 4.03696 4.94044 4 4.80001 4C4.65958 4 4.52162 4.03696 4.40001 4.10716C4.27792 4.17763 4.17663 4.2791 4.10639 4.4013C4.03615 4.52349 3.99945 4.66208 4.00001 4.80302V17.6005C4.00001 18.2369 4.25286 18.8472 4.70295 19.2972C5.15304 19.7472 5.76349 20 6.40001 20H17.6C18.2365 20 18.847 19.7472 19.2971 19.2972C19.7471 18.8472 20 18.2369 20 17.6005V12.8014C20 12.5893 19.9157 12.3859 19.7657 12.2359C19.6157 12.0859 19.4122 12.0016 19.2 12.0016ZM6.40001 18.4003C6.18783 18.4003 5.98435 18.316 5.83432 18.1661C5.68429 18.0161 5.60001 17.8126 5.60001 17.6005V6.18674L7.20001 7.09856C7.32348 7.16304 7.46071 7.19671 7.60001 7.19671C7.7393 7.19671 7.87653 7.16304 8.00001 7.09856L10.4 5.72284L12.8 7.09856C12.9235 7.16304 13.0607 7.19671 13.2 7.19671C13.3393 7.19671 13.4765 7.16304 13.6 7.09856L15.2 6.18674V17.6005C15.2022 17.8733 15.2509 18.1438 15.344 18.4003H6.40001ZM18.4 17.6005C18.4 17.8126 18.3157 18.0161 18.1657 18.1661C18.0157 18.316 17.8122 18.4003 17.6 18.4003C17.3878 18.4003 17.1843 18.316 17.0343 18.1661C16.8843 18.0161 16.8 17.8126 16.8 17.6005V13.6013H18.4V17.6005Z" fill="#585962"/>
</svg>
