<svg width="24" height="24" viewBox="0 0 24 24" fill="none" xmlns="http://www.w3.org/2000/svg">
<path d="M12.054 5C4.421 5 2.127 11.617 2.106 11.684L2 12L2.105 12.316C2.127 12.383 4.421 19 12.054 19C19.687 19 21.981 12.383 22.002 12.316L22.108 12L22.003 11.684C21.981 11.617 19.687 5 12.054 5ZM12.054 16C9.848 16 8.054 14.206 8.054 12C8.054 9.794 9.848 8 12.054 8C14.26 8 16.054 9.794 16.054 12C16.054 14.206 14.26 16 12.054 16Z" fill="#F3F3F3"/>
<path d="M12 10C10.916 10 10 10.916 10 12C10 13.084 10.916 14 12 14C13.084 14 14 13.084 14 12C14 10.916 13.084 10 12 10Z" fill="#F3F3F3"/>
</svg>
