<svg width="24" height="24" viewBox="0 0 24 24" fill="none" xmlns="http://www.w3.org/2000/svg">
<g clip-path="url(#clip0)">
<path d="M14.6213 22.8037L11.7267 21.5454C11.5678 21.4767 11.3917 21.4767 11.2328 21.5454L8.27377 22.8123C7.86578 22.9884 7.40625 22.6878 7.40625 22.2411V15.7218C7.40625 15.3783 7.6854 15.0991 8.02897 15.0991H14.866C15.2096 15.0991 15.4888 15.3783 15.4888 15.7218V22.2325C15.4888 22.6835 15.0292 22.9841 14.6213 22.8037Z" fill="url(#paint0_linear)"/>
<path opacity="0.4" d="M14.3592 22.0052L11.7009 20.85C11.5549 20.7856 11.3917 20.7856 11.2499 20.85L8.53572 22.0138C8.15779 22.177 7.74121 21.8979 7.74121 21.4899V17.3327C7.74121 17.2854 7.82281 17.3241 7.95594 17.4186C10.0603 18.883 12.8604 18.9088 14.9476 17.4186C15.0807 17.3241 15.1538 17.2897 15.1538 17.3327V21.4856C15.1538 21.8936 14.7329 22.1684 14.3592 22.0052Z" fill="url(#paint1_linear)"/>
<path d="M19.8994 9.47762C19.8994 11.7581 19.0018 13.8281 17.5417 15.3484C16.3993 16.5423 14.909 17.4012 13.2384 17.762C12.6587 17.8865 12.0617 17.951 11.4476 17.951C10.9795 17.951 10.5199 17.9123 10.069 17.8393C8.45849 17.573 6.99832 16.8515 5.83017 15.8079C5.76575 15.7521 5.70563 15.6963 5.6455 15.6361C5.42648 15.43 5.22033 15.211 5.02708 14.9834C4.83811 14.7643 4.66203 14.5324 4.49883 14.2962C4.00495 13.5833 3.61843 12.7888 3.36075 11.9342C3.12455 11.1568 3 10.328 3 9.47333C2.99571 4.79646 6.77929 1 11.4476 1C12.3022 1 13.1268 1.12884 13.9041 1.36504C14.7544 1.62272 15.5447 2.00924 16.2576 2.50742C16.4938 2.67062 16.7257 2.85099 16.9404 3.03566C17.2324 3.28475 17.5073 3.55531 17.765 3.84305C19.092 5.34188 19.8994 7.31742 19.8994 9.47762Z" fill="url(#paint2_linear)"/>
<path d="M11.4475 15.55C14.7919 15.55 17.503 12.8312 17.503 9.47741C17.503 6.12359 14.7919 3.40479 11.4475 3.40479C8.10321 3.40479 5.39209 6.12359 5.39209 9.47741C5.39209 12.8312 8.10321 15.55 11.4475 15.55Z" fill="url(#paint3_linear)"/>
<path d="M17.503 9.47774C17.503 12.8319 14.7931 15.5504 11.4475 15.5504C8.10201 15.5504 5.39209 12.8319 5.39209 9.47774C5.39209 9.22435 5.40927 8.97526 5.43933 8.73047C5.80438 11.7324 8.35539 14.0558 11.4475 14.0558C14.5397 14.0558 17.0907 11.7324 17.4557 8.73047C17.4858 8.97526 17.503 9.22435 17.503 9.47774Z" fill="url(#paint4_linear)"/>
<path fill-rule="evenodd" clip-rule="evenodd" d="M11.4475 3.40479C8.10201 3.40479 5.39209 6.12329 5.39209 9.47741C5.39209 12.8315 8.10201 15.55 11.4475 15.55C14.7931 15.55 17.503 12.8315 17.503 9.47741C17.503 6.12329 14.7931 3.40479 11.4475 3.40479ZM11.4475 14.85C8.49282 14.85 6.09212 12.4407 6.09212 9.47741C6.09212 6.51411 8.49282 4.10481 11.4475 4.10481C14.4022 4.10481 16.803 6.51411 16.803 9.47741C16.803 12.4407 14.4022 14.85 11.4475 14.85Z" fill="url(#paint5_linear)"/>
<path d="M13.8313 11.818C13.7969 11.8008 13.7583 11.7837 13.7196 11.7665C13.1828 11.5303 12.6073 11.3885 12.019 11.3413C11.9159 11.41 11.7999 11.4487 11.6797 11.4573C11.8558 11.7192 12.0104 11.9941 12.1392 12.2775C12.7319 12.226 13.2988 12.0714 13.8313 11.818Z" fill="url(#paint6_linear)"/>
<path d="M11.4563 11.4399C11.1857 11.3712 10.9839 11.1436 10.9409 10.873C10.271 10.1816 9.42921 9.70056 8.50586 9.46436C8.58316 10.2632 8.96539 11.0147 9.57952 11.543C10.1507 12.0368 10.8808 12.3074 11.6324 12.3074C11.6753 12.3074 11.9072 12.3031 11.9974 12.2945C11.8643 11.9982 11.6968 11.719 11.5078 11.4528C11.4906 11.4485 11.4735 11.4442 11.4563 11.4399Z" fill="url(#paint7_linear)"/>
<path d="M14.3165 6.08042C13.5177 5.66384 12.6502 5.44052 11.744 5.42334C11.7096 5.42334 11.671 5.42334 11.6366 5.42334C9.56231 5.42334 7.87451 7.10684 7.87451 9.17686C7.87451 9.2198 7.87451 9.26275 7.87881 9.31429C7.91746 10.3493 8.38987 11.3371 9.17579 12.0156C9.85864 12.604 10.7304 12.9304 11.6366 12.9304C11.6882 12.9304 12.0618 12.9175 12.1734 12.9046C12.925 12.8359 13.6465 12.6212 14.3165 12.2733L14.5784 12.1359V6.21355L14.3165 6.08042ZM11.9802 11.2082C12.1004 11.1137 12.182 10.972 12.1949 10.8088H11.7526V8.99648H14.0846V11.7966V11.8395C13.4876 12.153 12.8262 12.3549 12.1219 12.4193C12.006 12.4279 11.89 12.4365 11.7698 12.4365C11.7225 12.4408 11.6753 12.4408 11.628 12.4408C10.8078 12.4408 10.0605 12.1402 9.485 11.6463C8.81933 11.0708 8.38987 10.2333 8.35551 9.29281C8.35551 9.25416 8.35122 9.21551 8.35122 9.17256C8.35122 7.36881 9.81998 5.90434 11.628 5.90434C11.6624 5.90434 11.6924 5.90434 11.7268 5.90434C12.5771 5.92152 13.3802 6.13625 14.0846 6.50559V8.1805H12.1949V7.66085C12.1949 7.34734 11.9415 7.09396 11.628 7.09396C11.3145 7.09396 11.0611 7.34734 11.0611 7.66085V10.7573C11.0611 10.7745 11.0611 10.7916 11.0654 10.8088C11.0869 11.0493 11.2587 11.2469 11.4863 11.307C11.4906 11.307 11.4863 11.307 11.4863 11.307C11.5335 11.3199 11.5808 11.3242 11.628 11.3242C11.7655 11.3285 11.8857 11.2855 11.9802 11.2082Z" fill="url(#paint8_linear)"/>
</g>
<defs>
<linearGradient id="paint0_linear" x1="11.4474" y1="15.1019" x2="11.4474" y2="22.8634" gradientUnits="userSpaceOnUse">
<stop offset="0.0100579" stop-color="#FF647D"/>
<stop offset="1" stop-color="#FD646F"/>
</linearGradient>
<linearGradient id="paint1_linear" x1="11.4474" y1="17.3103" x2="11.4474" y2="22.0581" gradientUnits="userSpaceOnUse">
<stop offset="0.0100579" stop-color="#FF647D"/>
<stop offset="1" stop-color="#FD646F"/>
</linearGradient>
<linearGradient id="paint2_linear" x1="11.4475" y1="0.999999" x2="11.4475" y2="17.7088" gradientUnits="userSpaceOnUse">
<stop stop-color="#54AE6F"/>
<stop offset="0.4888" stop-color="#00AA4F"/>
<stop offset="1" stop-color="#007736"/>
</linearGradient>
<linearGradient id="paint3_linear" x1="11.4475" y1="4.44437" x2="11.4475" y2="13.7813" gradientUnits="userSpaceOnUse">
<stop stop-color="#FFFFB3"/>
<stop offset="1" stop-color="#ACE184"/>
</linearGradient>
<linearGradient id="paint4_linear" x1="11.9069" y1="16.3699" x2="11.7093" y2="13.4065" gradientUnits="userSpaceOnUse">
<stop stop-color="#54B948"/>
<stop offset="0.3764" stop-color="#00A651"/>
<stop offset="1" stop-color="#005826"/>
</linearGradient>
<linearGradient id="paint5_linear" x1="5.39299" y1="9.47852" x2="17.5019" y2="9.47852" gradientUnits="userSpaceOnUse">
<stop stop-color="#54B948"/>
<stop offset="0.3764" stop-color="#00A651"/>
<stop offset="1" stop-color="#005826"/>
</linearGradient>
<linearGradient id="paint6_linear" x1="12.7576" y1="12.9776" x2="12.7576" y2="4.40745" gradientUnits="userSpaceOnUse">
<stop stop-color="#54B948"/>
<stop offset="0.3764" stop-color="#00A651"/>
<stop offset="1" stop-color="#005826"/>
</linearGradient>
<linearGradient id="paint7_linear" x1="10.2529" y1="12.9774" x2="10.2529" y2="4.4073" gradientUnits="userSpaceOnUse">
<stop stop-color="#54B948"/>
<stop offset="0.3764" stop-color="#00A651"/>
<stop offset="1" stop-color="#005826"/>
</linearGradient>
<linearGradient id="paint8_linear" x1="11.2249" y1="12.9776" x2="11.2249" y2="4.40754" gradientUnits="userSpaceOnUse">
<stop stop-color="#54B948"/>
<stop offset="0.3764" stop-color="#00A651"/>
<stop offset="1" stop-color="#005826"/>
</linearGradient>
<clipPath id="clip0">
<rect width="24" height="24" fill="white"/>
</clipPath>
</defs>
</svg>
