<svg width="24" height="24" viewBox="0 0 24 24" fill="none" xmlns="http://www.w3.org/2000/svg">
<path d="M14.4345 9.04729L16.8928 6.47174M18.2976 5L16.8928 6.47174L18.2976 5ZM11.5476 12.0717C11.9103 12.4466 12.1986 12.893 12.3959 13.3851C12.5933 13.8772 12.6958 14.4054 12.6975 14.9391C12.6992 15.4729 12.6001 16.0018 12.4059 16.4953C12.2117 16.9888 11.9263 17.4371 11.566 17.8146C11.2057 18.192 10.7778 18.4911 10.3067 18.6945C9.83568 18.898 9.33088 19.0018 8.82139 19C8.3119 18.9982 7.80778 18.8908 7.33805 18.6841C6.86833 18.4773 6.44228 18.1753 6.08443 17.7953C5.38073 17.032 4.99134 16.0097 5.00015 14.9485C5.00895 13.8873 5.41523 12.8722 6.13149 12.1218C6.84775 11.3714 7.81668 10.9457 8.82958 10.9365C9.84249 10.9273 10.8183 11.3352 11.5469 12.0725L11.5476 12.0717ZM11.5476 12.0717L14.4345 9.04729L11.5476 12.0717ZM14.4345 9.04729L16.5416 11.2549L19 8.67936L16.8928 6.47174L14.4345 9.04729Z" stroke="#585962" stroke-linecap="round" stroke-linejoin="round"/>
</svg>
