<svg width="24" height="24" viewBox="0 0 24 24" fill="none" xmlns="http://www.w3.org/2000/svg">
<mask id="path-1-outside-1" maskUnits="userSpaceOnUse" x="1" y="1" width="22" height="22" fill="black">
<rect fill="white" x="1" y="1" width="22" height="22"/>
<path fill-rule="evenodd" clip-rule="evenodd" d="M21 12C21 14.3869 20.0518 16.6761 18.364 18.364C16.6761 20.0518 14.3869 21 12 21C9.61305 21 7.32387 20.0518 5.63604 18.364C3.94821 16.6761 3 14.3869 3 12C3 9.61305 3.94821 7.32387 5.63604 5.63604C7.32387 3.94821 9.61305 3 12 3C14.3869 3 16.6761 3.94821 18.364 5.63604C20.0518 7.32387 21 9.61305 21 12ZM16.5337 8.59125C16.4534 8.51117 16.3577 8.44812 16.2524 8.40587C16.1471 8.36361 16.0344 8.34303 15.921 8.34534C15.8076 8.34765 15.6958 8.37281 15.5923 8.41931C15.4888 8.46582 15.3958 8.53271 15.3187 8.616L11.4116 13.5941L9.057 11.2384C8.89705 11.0893 8.6855 11.0082 8.46691 11.0121C8.24832 11.0159 8.03976 11.1045 7.88518 11.2591C7.73059 11.4136 7.64204 11.6222 7.63818 11.8408C7.63432 12.0594 7.71546 12.2709 7.8645 12.4309L10.8412 15.4087C10.9214 15.4888 11.0169 15.5519 11.122 15.5942C11.2271 15.6366 11.3397 15.6573 11.453 15.6552C11.5662 15.6531 11.678 15.6282 11.7814 15.582C11.8849 15.5358 11.978 15.4692 12.0551 15.3863L16.5461 9.7725C16.6992 9.61331 16.7838 9.40043 16.7817 9.17958C16.7796 8.95872 16.691 8.74749 16.5349 8.59125H16.5337Z"/>
</mask>
<path fill-rule="evenodd" clip-rule="evenodd" d="M21 12C21 14.3869 20.0518 16.6761 18.364 18.364C16.6761 20.0518 14.3869 21 12 21C9.61305 21 7.32387 20.0518 5.63604 18.364C3.94821 16.6761 3 14.3869 3 12C3 9.61305 3.94821 7.32387 5.63604 5.63604C7.32387 3.94821 9.61305 3 12 3C14.3869 3 16.6761 3.94821 18.364 5.63604C20.0518 7.32387 21 9.61305 21 12ZM16.5337 8.59125C16.4534 8.51117 16.3577 8.44812 16.2524 8.40587C16.1471 8.36361 16.0344 8.34303 15.921 8.34534C15.8076 8.34765 15.6958 8.37281 15.5923 8.41931C15.4888 8.46582 15.3958 8.53271 15.3187 8.616L11.4116 13.5941L9.057 11.2384C8.89705 11.0893 8.6855 11.0082 8.46691 11.0121C8.24832 11.0159 8.03976 11.1045 7.88518 11.2591C7.73059 11.4136 7.64204 11.6222 7.63818 11.8408C7.63432 12.0594 7.71546 12.2709 7.8645 12.4309L10.8412 15.4087C10.9214 15.4888 11.0169 15.5519 11.122 15.5942C11.2271 15.6366 11.3397 15.6573 11.453 15.6552C11.5662 15.6531 11.678 15.6282 11.7814 15.582C11.8849 15.5358 11.978 15.4692 12.0551 15.3863L16.5461 9.7725C16.6992 9.61331 16.7838 9.40043 16.7817 9.17958C16.7796 8.95872 16.691 8.74749 16.5349 8.59125H16.5337Z" fill="#3CAF4B"/>
<path d="M12 21V23V21ZM3 12H1H3ZM12 3V1V3ZM16.5337 8.59125L15.122 10.0079L15.7074 10.5912H16.5337V8.59125ZM15.3187 8.616L13.8505 7.25798L13.7955 7.31746L13.7455 7.38119L15.3187 8.616ZM11.4116 13.5941L9.99707 15.008L11.592 16.6037L12.9849 14.8289L11.4116 13.5941ZM9.057 11.2384L10.4716 9.8245L10.4464 9.79937L10.4204 9.77515L9.057 11.2384ZM7.8645 12.4309L6.40128 13.7943L6.42521 13.82L6.45002 13.8448L7.8645 12.4309ZM10.8412 15.4087L9.42677 16.8227L9.42833 16.8243L10.8412 15.4087ZM12.0551 15.3863L13.5195 16.7484L13.5703 16.6938L13.6169 16.6356L12.0551 15.3863ZM16.5461 9.7725L15.1046 8.3861L15.0414 8.45186L14.9844 8.52311L16.5461 9.7725ZM16.5349 8.59125L17.9497 7.17765L17.3638 6.59125H16.5349V8.59125ZM19 12C19 13.8565 18.2625 15.637 16.9497 16.9497L19.7782 19.7782C21.8411 17.7153 23 14.9174 23 12H19ZM16.9497 16.9497C15.637 18.2625 13.8565 19 12 19V23C14.9174 23 17.7153 21.8411 19.7782 19.7782L16.9497 16.9497ZM12 19C10.1435 19 8.36301 18.2625 7.05025 16.9497L4.22183 19.7782C6.28473 21.8411 9.08262 23 12 23V19ZM7.05025 16.9497C5.7375 15.637 5 13.8565 5 12H1C1 14.9174 2.15893 17.7153 4.22183 19.7782L7.05025 16.9497ZM5 12C5 10.1435 5.7375 8.36301 7.05025 7.05025L4.22183 4.22183C2.15893 6.28473 1 9.08262 1 12H5ZM7.05025 7.05025C8.36301 5.7375 10.1435 5 12 5V1C9.08262 1 6.28473 2.15893 4.22183 4.22183L7.05025 7.05025ZM12 5C13.8565 5 15.637 5.7375 16.9497 7.05025L19.7782 4.22183C17.7153 2.15893 14.9174 1 12 1V5ZM16.9497 7.05025C18.2625 8.36301 19 10.1435 19 12H23C23 9.08262 21.8411 6.28473 19.7782 4.22183L16.9497 7.05025ZM17.9455 7.17457C17.6746 6.90467 17.3522 6.69217 16.9973 6.54976L15.5075 10.262C15.3633 10.2041 15.2321 10.1177 15.122 10.0079L17.9455 7.17457ZM16.9973 6.54976C16.6425 6.40735 16.2625 6.33797 15.8803 6.34575L15.9617 10.3449C15.8063 10.3481 15.6518 10.3199 15.5075 10.262L16.9973 6.54976ZM15.8803 6.34575C15.498 6.35354 15.1212 6.43834 14.7724 6.59508L16.4122 10.2435C16.2703 10.3073 16.1172 10.3418 15.9617 10.3449L15.8803 6.34575ZM14.7724 6.59508C14.4237 6.75182 14.1101 6.97728 13.8505 7.25798L16.787 9.97402C16.6815 10.0881 16.554 10.1798 16.4122 10.2435L14.7724 6.59508ZM13.7455 7.38119L9.83834 12.3593L12.9849 14.8289L16.892 9.85081L13.7455 7.38119ZM12.8262 12.1802L10.4716 9.8245L7.64245 12.6523L9.99707 15.008L12.8262 12.1802ZM10.4204 9.77515C9.88136 9.27283 9.16835 8.99937 8.43163 9.01236L8.50219 13.0117C8.20265 13.017 7.91274 12.9058 7.69356 12.7016L10.4204 9.77515ZM8.43163 9.01236C7.69491 9.02536 6.99199 9.32381 6.47096 9.84484L9.29939 12.6733C9.08754 12.8851 8.80174 13.0065 8.50219 13.0117L8.43163 9.01236ZM6.47096 9.84484C5.94994 10.3659 5.65149 11.0688 5.63849 11.8055L9.63787 11.8761C9.63258 12.1756 9.51124 12.4614 9.29939 12.6733L6.47096 9.84484ZM5.63849 11.8055C5.62549 12.5422 5.89896 13.2552 6.40128 13.7943L9.32772 11.0674C9.53196 11.2866 9.64315 11.5765 9.63787 11.8761L5.63849 11.8055ZM6.45002 13.8448L9.42677 16.8227L12.2557 13.9948L9.27898 11.0169L6.45002 13.8448ZM9.42833 16.8243C9.6986 17.094 10.0204 17.3066 10.3747 17.4493L11.8694 13.7391C12.0134 13.7971 12.1443 13.8836 12.2542 13.9932L9.42833 16.8243ZM10.3747 17.4493C10.7289 17.592 11.1082 17.6619 11.49 17.6548L11.4159 13.6555C11.5711 13.6527 11.7254 13.6811 11.8694 13.7391L10.3747 17.4493ZM11.49 17.6548C11.8718 17.6478 12.2483 17.5639 12.597 17.4081L10.9658 13.7558C11.1076 13.6925 11.2607 13.6584 11.4159 13.6555L11.49 17.6548ZM12.597 17.4081C12.9457 17.2524 13.2594 17.028 13.5195 16.7484L10.5907 14.0241C10.6965 13.9104 10.824 13.8192 10.9658 13.7558L12.597 17.4081ZM13.6169 16.6356L18.1079 11.0219L14.9844 8.52311L10.4934 14.1369L13.6169 16.6356ZM17.9876 11.1589C18.5036 10.6224 18.7887 9.9049 18.7816 9.16053L14.7818 9.19862C14.7789 8.89597 14.8948 8.60425 15.1046 8.3861L17.9876 11.1589ZM18.7816 9.16053C18.7745 8.41616 18.4758 7.70425 17.9497 7.17765L15.12 10.0049C14.9061 9.79074 14.7847 9.50128 14.7818 9.19862L18.7816 9.16053ZM16.5349 6.59125H16.5337V10.5912H16.5349V6.59125Z" fill="white" mask="url(#path-1-outside-1)"/>
</svg>
