<svg width="24" height="24" viewBox="0 0 24 24" fill="none" xmlns="http://www.w3.org/2000/svg">
<path d="M12 20C16.4183 20 20 16.4183 20 12C20 7.58172 16.4183 4 12 4C7.58172 4 4 7.58172 4 12C4 16.4183 7.58172 20 12 20Z" fill="url(#paint0_radial)"/>
<path d="M19.0997 11.9998C19.0997 14.1425 18.1522 16.0594 16.6526 17.3614C15.4071 18.4437 13.782 18.4343 12.0032 18.4343C10.2432 18.4343 8.63067 18.4531 7.39145 17.3927C5.86988 16.0908 4.90675 14.1582 4.90675 11.9967C4.90047 8.08136 8.07851 4.90332 12.0001 4.90332C15.9217 4.90332 19.0997 8.08136 19.0997 11.9998Z" fill="url(#paint1_linear)"/>
<path d="M12.0154 5.99854C10.177 5.99854 8.77148 7.40403 8.77148 9.24246C8.77148 10.2244 9.11345 11.106 9.79109 11.7178L15.5134 17.4432C15.7519 17.2801 16.4327 17.553 16.6491 17.3648C18.1487 16.0628 19.0962 14.1428 19.0962 12.0032C19.0962 11.8746 19.0931 11.7428 19.0868 11.6174L14.4907 7.01501C13.8789 6.3405 12.9974 5.99854 12.0154 5.99854Z" fill="url(#paint2_linear)"/>
<path d="M12 12.5552C13.8384 12.5552 15.3286 11.0649 15.3286 9.22658C15.3286 7.38823 13.8384 5.89795 12 5.89795C10.1617 5.89795 8.67139 7.38823 8.67139 9.22658C8.67139 11.0649 10.1617 12.5552 12 12.5552Z" fill="url(#paint3_linear)"/>
<path d="M16.4172 14.855C17.3176 15.4322 17.4085 16.7216 16.5929 17.415C16.5834 17.4244 16.574 17.4307 16.5646 17.4401C15.3317 18.4754 13.7379 19.0997 12.003 19.0997C10.2493 19.0997 8.64305 18.4628 7.40383 17.4087C7.39756 17.4056 7.39442 17.3993 7.38814 17.3962C6.5756 16.7028 6.67285 15.4134 7.57324 14.8393C8.84697 14.0267 10.3623 13.5562 11.9842 13.5562C13.6156 13.5593 15.1372 14.033 16.4172 14.855Z" fill="url(#paint4_linear)"/>
<defs>
<radialGradient id="paint0_radial" cx="0" cy="0" r="1" gradientUnits="userSpaceOnUse" gradientTransform="translate(12.3765 11.9692) scale(9.95776)">
<stop stop-color="#54AE6F"/>
<stop offset="0.4888" stop-color="#00AA4F"/>
<stop offset="1" stop-color="#007736"/>
</radialGradient>
<linearGradient id="paint1_linear" x1="10.3582" y1="10.3589" x2="16.1375" y2="16.1381" gradientUnits="userSpaceOnUse">
<stop stop-color="#54AE6F"/>
<stop offset="0.4888" stop-color="#00AA4F"/>
<stop offset="1" stop-color="#007736"/>
</linearGradient>
<linearGradient id="paint2_linear" x1="17.355" y1="14.5821" x2="10.6871" y2="7.91411" gradientUnits="userSpaceOnUse">
<stop stop-color="#003F25" stop-opacity="0"/>
<stop offset="1" stop-color="#009450"/>
</linearGradient>
<linearGradient id="paint3_linear" x1="11.9433" y1="6.10746" x2="12.1943" y2="19.9114" gradientUnits="userSpaceOnUse">
<stop stop-color="#FFFFB3"/>
<stop offset="1" stop-color="#ACE184"/>
</linearGradient>
<linearGradient id="paint4_linear" x1="11.8088" y1="6.11007" x2="12.0598" y2="19.914" gradientUnits="userSpaceOnUse">
<stop stop-color="#FFFFB3"/>
<stop offset="1" stop-color="#ACE184"/>
</linearGradient>
</defs>
</svg>
