<svg width="36" height="36" viewBox="0 0 36 36" fill="none" xmlns="http://www.w3.org/2000/svg">
<path d="M18 8C16.0222 8 14.0888 8.58649 12.4443 9.6853C10.7998 10.7841 9.51809 12.3459 8.76121 14.1732C8.00433 16.0004 7.8063 18.0111 8.19215 19.9509C8.578 21.8907 9.53041 23.6725 10.9289 25.0711C12.3275 26.4696 14.1093 27.422 16.0491 27.8078C17.9889 28.1937 19.9996 27.9957 21.8268 27.2388C23.6541 26.4819 25.2159 25.2002 26.3147 23.5557C27.4135 21.9112 28 19.9778 28 18C28 15.3478 26.9464 12.8043 25.0711 10.9289C23.1957 9.05357 20.6522 8 18 8ZM18 26.3333C16.3518 26.3333 14.7407 25.8446 13.3703 24.9289C11.9998 24.0132 10.9317 22.7117 10.301 21.189C9.67028 19.6663 9.50525 17.9908 9.82679 16.3742C10.1483 14.7577 10.942 13.2729 12.1074 12.1074C13.2729 10.942 14.7577 10.1483 16.3743 9.82679C17.9908 9.50525 19.6663 9.67027 21.189 10.301C22.7117 10.9317 24.0132 11.9998 24.9289 13.3702C25.8446 14.7407 26.3333 16.3518 26.3333 18C26.3333 19.0943 26.1178 20.178 25.699 21.189C25.2802 22.2001 24.6664 23.1187 23.8926 23.8926C23.1187 24.6664 22.2001 25.2802 21.189 25.699C20.178 26.1178 19.0944 26.3333 18 26.3333Z" fill="#F3F3F3"/>
<path d="M16.617 22.7834L12.4504 18.6167C12.3139 18.4573 12.2425 18.2522 12.2506 18.0425C12.2587 17.8328 12.3457 17.6338 12.4941 17.4854C12.6425 17.337 12.8414 17.2501 13.0512 17.242C13.2609 17.2339 13.466 17.3052 13.6254 17.4417L16.617 20.4334L22.267 14.7834C22.4265 14.6469 22.6315 14.5755 22.8413 14.5836C23.051 14.5917 23.2499 14.6787 23.3984 14.8271C23.5468 14.9755 23.6337 15.1744 23.6418 15.3842C23.6499 15.5939 23.5786 15.799 23.442 15.9584L16.617 22.7834Z" fill="#F3F3F3"/>
</svg>
