<svg width="90" height="90" viewBox="0 0 90 90" fill="none" xmlns="http://www.w3.org/2000/svg">
<path d="M73.7533 81.9867H16.2297C15.0222 81.9867 14.0342 81.0071 14.0342 79.7911V40.5244H75.9404V79.7911C75.9489 81.0071 74.9693 81.9867 73.7533 81.9867Z" fill="url(#paint0_linear_4608_68216)"/>
<path d="M77.0297 40.5751H12.9533C12.244 40.5751 11.6697 40.0009 11.6697 39.2915V24.2098C11.6697 23.5004 12.244 22.9262 12.9533 22.9262H77.0297C77.739 22.9262 78.3132 23.5004 78.3132 24.2098V39.2915C78.3217 40.0009 77.739 40.5751 77.0297 40.5751Z" fill="url(#paint1_linear_4608_68216)"/>
<path d="M14.0342 37.1129V26.3969C14.0342 25.7889 14.524 25.2991 15.132 25.2991H74.8511C75.4591 25.2991 75.9489 25.7889 75.9489 26.3969V37.1129C75.9489 37.7209 75.4591 38.2107 74.8511 38.2107H15.132C14.5324 38.2107 14.0342 37.7209 14.0342 37.1129Z" fill="url(#paint2_linear_4608_68216)"/>
<path d="M52.3551 9.22931C50.2271 8.11465 47.9218 7.52354 45.5067 7.48131C45.4138 7.48131 45.3125 7.47287 45.2196 7.47287C39.6969 7.47287 35.2045 11.9569 35.2045 17.4711C35.2045 17.5809 35.2045 17.6991 35.2129 17.8342C35.3142 20.5955 36.5725 23.2133 38.6667 25.0289C40.4822 26.5995 42.8129 27.4609 45.2196 27.4609C45.3547 27.4609 46.3511 27.4186 46.6551 27.3933C48.6649 27.2075 50.5818 26.6418 52.3636 25.7129L53.056 25.3498V9.58398L52.3551 9.22931Z" fill="white"/>
<path d="M35.3902 30.7204L33.6422 32.7893L35.5507 34.9595V35.0186H34.3853L32.7893 33.1693V35.0186H31.8267V30.6951H32.7893V32.4768L34.2249 30.6951H35.3902V30.7204Z" fill="white"/>
<path d="M36.8089 30.6951H35.8547V35.0186H36.8089V30.6951Z" fill="white"/>
<path d="M38.5907 31.548H37.2818V30.6951H40.8622V31.548H39.5449V35.0186H38.5907V31.548Z" fill="white"/>
<path d="M44.9831 34.4866C44.7636 34.7062 44.5102 34.8751 44.2231 34.968C43.9444 35.0693 43.6404 35.12 43.3196 35.12C42.9058 35.12 42.5511 35.0609 42.264 34.9342C41.9684 34.8075 41.732 34.6471 41.5462 34.4444C41.3604 34.2417 41.2253 33.9969 41.1409 33.7266C41.0564 33.4564 41.0142 33.1777 41.0142 32.8737C41.0142 32.5951 41.0564 32.3164 41.1493 32.0462C41.2422 31.7675 41.3773 31.5311 41.5716 31.3115C41.7573 31.092 42.0022 30.9231 42.2978 30.788C42.5933 30.6529 42.9311 30.5853 43.328 30.5853C43.6236 30.5853 43.9022 30.6444 44.1724 30.7542C44.4427 30.864 44.6876 31.0329 44.9071 31.2524L44.2991 31.852C44.164 31.7253 44.012 31.6324 43.8431 31.5733C43.6658 31.5142 43.4969 31.4889 43.3196 31.4889C43.0747 31.4889 42.8636 31.5311 42.6862 31.6155C42.5173 31.7 42.3738 31.8097 42.264 31.9449C42.1542 32.08 42.0782 32.232 42.0276 32.3924C41.9769 32.5529 41.9516 32.7133 41.9516 32.8737C41.9516 33.0342 41.9769 33.1862 42.0191 33.3466C42.0698 33.5071 42.1458 33.6506 42.2556 33.7773C42.3653 33.904 42.5004 34.0137 42.6693 34.0897C42.8382 34.1657 43.0493 34.208 43.3111 34.208C43.3956 34.208 43.4884 34.1995 43.5813 34.1826C43.6827 34.1657 43.7756 34.1404 43.8684 34.0982C43.9613 34.0644 44.0542 34.0222 44.1387 33.9715C44.2231 33.9209 44.2991 33.8617 44.3667 33.7942L44.9831 34.4866Z" fill="white"/>
<path d="M48.3271 35.0186V33.3128H46.3933V35.0186H45.4307V30.6951H46.3933V32.4262H48.3271V30.6951H49.2813V35.0186H48.3271Z" fill="white"/>
<path d="M53.4106 35.0186H50.1173V30.6951H53.3262V31.5733H51.0631V32.4177H53.1995V33.2537H51.0631V34.1235H53.4106V35.0186Z" fill="white"/>
<path d="M57.0587 33.4986L56.9911 32.1475V30.6951H57.9622V35.0186H57.1347L54.9898 32.2488L55.0236 33.6675V35.0186H54.044V30.6951H54.8716L57.0587 33.4986Z" fill="white"/>
<path d="M46.1399 22.884C45.8866 23.0866 45.5657 23.2049 45.2111 23.2049C45.0844 23.2049 44.9577 23.188 44.8311 23.1542C45.4982 24.0493 46.0639 25.0288 46.5115 26.076L46.5284 26.1097C48.4031 25.9408 50.1679 25.4004 51.7555 24.5729V24.4546C51.4853 24.3111 51.2066 24.176 50.9195 24.0493C49.4417 23.3991 47.8373 22.9937 46.1399 22.884Z" fill="#006937"/>
<path d="M44.8396 23.1542C44.2316 22.9938 43.7755 22.4702 43.7164 21.8284C41.7995 19.8271 39.3084 18.3915 36.5049 17.792C36.5978 20.2915 37.7462 22.5209 39.5196 24.0578C41.048 25.3751 43.0409 26.1773 45.228 26.1773C45.3547 26.1773 45.4813 26.1773 45.608 26.1689C45.9204 26.1604 46.2329 26.1435 46.5369 26.1182L46.52 26.0844C46.0724 25.0289 45.5067 24.0493 44.8396 23.1542Z" fill="#3DAE2B"/>
<path d="M45.4729 8.77332C45.3884 8.77332 45.304 8.77332 45.2111 8.77332C40.3978 8.77332 36.488 12.6662 36.488 17.4795C36.488 17.5893 36.488 17.6906 36.4964 17.8004C39.3 18.4084 41.7995 19.844 43.708 21.8453C43.708 21.8031 43.6995 21.7609 43.6995 21.7102V13.4515C43.6995 12.6155 44.3751 11.94 45.2111 11.94C46.0471 11.94 46.7226 12.6155 46.7226 13.4515V14.828H51.7555V10.3693C49.8724 9.38132 47.7444 8.80709 45.4729 8.77332Z" fill="black"/>
<path d="M46.7226 17.0067H45.5404V21.8284H46.7142C46.6804 22.2591 46.4609 22.6391 46.14 22.884C47.8289 22.9938 49.4418 23.3991 50.9195 24.0493C51.2066 24.176 51.4853 24.3111 51.7555 24.4546V17.0067H46.7395H46.7226Z" fill="black"/>
<path d="M17.9946 40.5244H12.5902L9.63464 49.1209H15.5373L17.9946 40.5244Z" fill="#3DAE2B"/>
<path d="M21.4315 49.1209L23.3991 40.5244H17.9946L15.5373 49.1209H21.4315Z" fill="white"/>
<path d="M27.3257 49.1209L28.8035 40.5244H23.3991L21.4315 49.1209H27.3257Z" fill="#3DAE2B"/>
<path d="M33.2284 49.1209L34.208 40.5244H28.8035L27.3257 49.1209H33.2284Z" fill="white"/>
<path d="M39.1226 49.1209L39.6124 40.5244H34.2079L33.2284 49.1209H39.1226Z" fill="#3DAE2B"/>
<path d="M45.0169 49.1209V40.5244H39.6125L39.1227 49.1209H45.0169Z" fill="white"/>
<path d="M50.9112 49.1209L50.4214 40.5244H45.0169V49.1209H50.9112Z" fill="#3DAE2B"/>
<path d="M56.8138 49.1209L55.8258 40.5244H50.4213L50.9111 49.1209H56.8138Z" fill="white"/>
<path d="M62.708 49.1209L61.2302 40.5244H55.8257L56.8137 49.1209H62.708Z" fill="#3DAE2B"/>
<path d="M68.6022 49.1209L66.6347 40.5244H61.2302L62.708 49.1209H68.6022Z" fill="white"/>
<path d="M74.5049 49.1209L72.0475 40.5244H66.6346L68.6022 49.1209H74.5049Z" fill="#3DAE2B"/>
<path d="M80.3992 49.1209L77.452 40.5244H72.0475L74.5049 49.1209H80.3992Z" fill="white"/>
<path d="M9.63464 49.1208V50.0244C9.63464 50.6071 10.2173 51.0884 10.9351 51.0884H14.2284C14.9462 51.0884 15.5289 50.6155 15.5289 50.0244V49.1208" fill="#31813F"/>
<path d="M15.5373 49.1208V50.0244C15.5373 50.6071 16.12 51.0884 16.8377 51.0884H20.1311C20.8488 51.0884 21.4315 50.6155 21.4315 50.0244V49.1208" fill="#D3D3D3"/>
<path d="M21.4315 49.1208V50.0244C21.4315 50.6071 22.0142 51.0884 22.732 51.0884H26.0253C26.7431 51.0884 27.3258 50.6155 27.3258 50.0244V49.1208" fill="#31813F"/>
<path d="M27.3257 49.1208V50.0244C27.3257 50.6071 27.9084 51.0884 28.6262 51.0884H31.9195C32.6373 51.0884 33.22 50.6155 33.22 50.0244V49.1208" fill="#D3D3D3"/>
<path d="M33.2284 49.1208V50.0244C33.2284 50.6071 33.8111 51.0884 34.5288 51.0884H37.8222C38.54 51.0884 39.1226 50.6155 39.1226 50.0244V49.1208" fill="#31813F"/>
<path d="M39.1227 49.1208V50.0244C39.1227 50.6071 39.7053 51.0884 40.4231 51.0884H43.7165C44.4342 51.0884 45.0169 50.6155 45.0169 50.0244V49.1208" fill="#D3D3D3"/>
<path d="M45.0169 49.1208V50.0244C45.0169 50.6071 45.5996 51.0884 46.3174 51.0884H49.6107C50.3285 51.0884 50.9112 50.6155 50.9112 50.0244V49.1208" fill="#31813F"/>
<path d="M50.9111 49.1208V50.0244C50.9111 50.6071 51.4938 51.0884 52.2116 51.0884H55.5049C56.2227 51.0884 56.8054 50.6155 56.8054 50.0244V49.1208" fill="#D3D3D3"/>
<path d="M56.8137 49.1208V50.0244C56.8137 50.6071 57.3964 51.0884 58.1142 51.0884H61.4075C62.1253 51.0884 62.7079 50.6155 62.7079 50.0244V49.1208" fill="#31813F"/>
<path d="M62.7079 49.1208V50.0244C62.7079 50.6071 63.2906 51.0884 64.0084 51.0884H67.3018C68.0196 51.0884 68.6022 50.6155 68.6022 50.0244V49.1208" fill="#D3D3D3"/>
<path d="M68.6022 49.1208V50.0244C68.6022 50.6071 69.1849 51.0884 69.9027 51.0884H73.196C73.9137 51.0884 74.4964 50.6155 74.4964 50.0244V49.1208" fill="#31813F"/>
<path d="M74.5049 49.1208V50.0244C74.5049 50.6071 75.0876 51.0884 75.8053 51.0884H79.0987C79.8165 51.0884 80.3992 50.6155 80.3992 50.0244V49.1208" fill="#D3D3D3"/>
<g opacity="0.7">
<path opacity="0.7" d="M27.9675 69.7H20.3C19.8355 69.7 19.464 69.3285 19.464 68.864V57.3205C19.464 56.856 19.8355 56.4845 20.3 56.4845H27.9675C28.432 56.4845 28.8035 56.856 28.8035 57.3205V68.864C28.8035 69.3285 28.432 69.7 27.9675 69.7Z" fill="url(#paint3_linear_4608_68216)"/>
</g>
<g opacity="0.7">
<path opacity="0.7" d="M38.0418 69.7H30.3742C29.9098 69.7 29.5382 69.3285 29.5382 68.864V57.3205C29.5382 56.856 29.9098 56.4845 30.3742 56.4845H38.0418C38.5062 56.4845 38.8778 56.856 38.8778 57.3205V68.864C38.8778 69.3285 38.5062 69.7 38.0418 69.7Z" fill="url(#paint4_linear_4608_68216)"/>
</g>
<g opacity="0.7">
<path opacity="0.7" d="M48.116 69.7H40.4484C39.984 69.7 39.6124 69.3285 39.6124 68.864V57.3205C39.6124 56.856 39.984 56.4845 40.4484 56.4845H48.116C48.5804 56.4845 48.952 56.856 48.952 57.3205V68.864C48.952 69.3285 48.572 69.7 48.116 69.7Z" fill="url(#paint5_linear_4608_68216)"/>
</g>
<g opacity="0.7">
<path opacity="0.7" d="M53.4698 81.7503V57.4134C53.4698 56.6787 54.0609 56.0876 54.7956 56.0876H68.2307C68.9653 56.0876 69.5565 56.6787 69.5565 57.4134V81.7587H53.4698V81.7503Z" fill="url(#paint6_linear_4608_68216)"/>
<g opacity="0.7">
<path opacity="0.7" d="M68.2307 56.324C68.8302 56.324 69.32 56.8138 69.32 57.4134V81.5222H53.7062V57.4134C53.7062 56.8138 54.196 56.324 54.7956 56.324H68.2307ZM68.2307 55.8511H54.7956C53.9342 55.8511 53.2333 56.552 53.2333 57.4134V81.9867H69.7929V57.4134C69.7929 56.552 69.092 55.8511 68.2307 55.8511Z" fill="#3DAE2B"/>
</g>
</g>
<g opacity="0.7">
<path opacity="0.7" d="M48.0062 78.7187H20.1058C19.7511 78.7187 19.464 78.4315 19.464 78.0769V74.5555C19.464 74.2009 19.7511 73.9138 20.1058 73.9138H48.0062C48.3609 73.9138 48.648 74.2009 48.648 74.5555V78.0769C48.648 78.4315 48.3609 78.7187 48.0062 78.7187Z" fill="url(#paint7_linear_4608_68216)"/>
</g>
<defs>
<linearGradient id="paint0_linear_4608_68216" x1="44.6229" y1="48.5272" x2="45.0233" y2="61.1406" gradientUnits="userSpaceOnUse">
<stop stop-color="#0D442D"/>
<stop offset="1" stop-color="#00914D"/>
</linearGradient>
<linearGradient id="paint1_linear_4608_68216" x1="44.9928" y1="41.0795" x2="44.9928" y2="23.4286" gradientUnits="userSpaceOnUse">
<stop stop-color="#0D442D"/>
<stop offset="1" stop-color="#00914D"/>
</linearGradient>
<linearGradient id="paint2_linear_4608_68216" x1="44.9929" y1="38.2766" x2="44.9929" y2="22.6509" gradientUnits="userSpaceOnUse">
<stop stop-color="#002612"/>
<stop offset="1" stop-color="#00360F"/>
</linearGradient>
<linearGradient id="paint3_linear_4608_68216" x1="24.1338" y1="54.8275" x2="24.1338" y2="69.6529" gradientUnits="userSpaceOnUse">
<stop stop-color="#ACD488"/>
<stop offset="1" stop-color="#00AC4D"/>
</linearGradient>
<linearGradient id="paint4_linear_4608_68216" x1="34.2072" y1="54.8275" x2="34.2072" y2="69.6529" gradientUnits="userSpaceOnUse">
<stop stop-color="#ACD488"/>
<stop offset="1" stop-color="#00AC4D"/>
</linearGradient>
<linearGradient id="paint5_linear_4608_68216" x1="44.2806" y1="54.8275" x2="44.2806" y2="69.6529" gradientUnits="userSpaceOnUse">
<stop stop-color="#ACD488"/>
<stop offset="1" stop-color="#00AC4D"/>
</linearGradient>
<linearGradient id="paint6_linear_4608_68216" x1="61.3445" y1="60.2656" x2="62.4849" y2="124.129" gradientUnits="userSpaceOnUse">
<stop stop-color="#002612"/>
<stop offset="1" stop-color="#00360F"/>
</linearGradient>
<linearGradient id="paint7_linear_4608_68216" x1="34.0574" y1="74.0813" x2="34.0574" y2="81.2889" gradientUnits="userSpaceOnUse">
<stop stop-color="#ACD488"/>
<stop offset="1" stop-color="#00AC4D"/>
</linearGradient>
</defs>
</svg>
