<svg width="24" height="24" viewBox="0 0 24 24" fill="none" xmlns="http://www.w3.org/2000/svg">
<path d="M9.75 17.9996H7.5C6.70435 17.9996 5.94129 17.6835 5.37868 17.1209C4.81607 16.5583 4.5 15.7952 4.5 14.9996V8.24957C4.5 7.45392 4.81607 6.69086 5.37868 6.12825C5.94129 5.56564 6.70435 5.24957 7.5 5.24957H15.75C16.5456 5.24957 17.3087 5.56564 17.8713 6.12825C18.4339 6.69086 18.75 7.45392 18.75 8.24957V10.4996" stroke="white" stroke-linecap="round" stroke-linejoin="round"/>
<path d="M8.99988 4.49976V5.99976" stroke="white" stroke-linecap="round" stroke-linejoin="round"/>
<path d="M14.25 4.49976V5.99976" stroke="white" stroke-linecap="round" stroke-linejoin="round"/>
<path d="M4.5 8.99957H18.75" stroke="white" stroke-linecap="round" stroke-linejoin="round"/>
<path d="M16.875 14.7317L15.75 15.8567" stroke="white" stroke-linecap="round" stroke-linejoin="round"/>
<path d="M15.75 19.4998C17.8211 19.4998 19.5 17.8208 19.5 15.7498C19.5 13.6787 17.8211 11.9998 15.75 11.9998C13.6789 11.9998 12 13.6787 12 15.7498C12 17.8208 13.6789 19.4998 15.75 19.4998Z" stroke="white" stroke-linecap="round" stroke-linejoin="round"/>
</svg>
