<svg width="36" height="36" viewBox="0 0 36 36" fill="none" xmlns="http://www.w3.org/2000/svg">
<path d="M27.3335 15.8571H26.6669V11.5714C26.6669 11.382 26.5967 11.2003 26.4717 11.0663C26.3467 10.9324 26.1771 10.8571 26.0004 10.8571H10.0032C9.84533 10.8599 9.6917 10.8025 9.56964 10.6953C9.44758 10.588 9.365 10.4378 9.33661 10.2714V10.0143C9.365 9.84788 9.44758 9.69768 9.56964 9.59042C9.6917 9.48316 9.84533 9.42581 10.0032 9.42857H25.7204C25.8972 9.42857 26.0667 9.35331 26.1917 9.21936C26.3167 9.0854 26.3869 8.90372 26.3869 8.71428C26.3869 8.52484 26.3167 8.34316 26.1917 8.20921C26.0667 8.07525 25.8972 8 25.7204 8H10.0032C9.47282 8 8.9642 8.22576 8.58919 8.62763C8.21419 9.02949 8.00351 9.57453 8.00351 10.1428C7.99883 10.2285 7.99883 10.3143 8.00351 10.4V25.0928C8.00613 25.4774 8.07941 25.8576 8.21917 26.2119C8.35893 26.5661 8.56243 26.8874 8.81806 27.1573C9.07369 27.4273 9.37643 27.6406 9.70901 27.7852C10.0416 27.9298 10.3975 28.0027 10.7564 27.9999H26.0004C26.1771 27.9999 26.3467 27.9247 26.4717 27.7907C26.5967 27.6568 26.6669 27.4751 26.6669 27.2856V22.9999H27.3335C27.5102 22.9999 27.6798 22.9247 27.8048 22.7907C27.9298 22.6568 28 22.4751 28 22.2857V16.5714C28 16.382 27.9298 16.2003 27.8048 16.0663C27.6798 15.9324 27.5102 15.8571 27.3335 15.8571ZM25.3338 26.5714H10.7564C10.3856 26.5752 10.0285 26.422 9.76259 26.1451C9.49672 25.8682 9.34362 25.49 9.33661 25.0928V12.2C9.55297 12.2672 9.7781 12.2961 10.0032 12.2857H25.3338V15.8571H20.668C19.7841 15.8571 18.9364 16.2334 18.3113 16.9032C17.6863 17.5729 17.3352 18.4813 17.3352 19.4285C17.3352 20.3757 17.6863 21.2841 18.3113 21.9539C18.9364 22.6237 19.7841 22.9999 20.668 22.9999H25.3338V26.5714ZM26.6669 21.5714H20.668C20.1376 21.5714 19.629 21.3456 19.254 20.9437C18.879 20.5419 18.6683 19.9968 18.6683 19.4285C18.6683 18.8602 18.879 18.3152 19.254 17.9133C19.629 17.5114 20.1376 17.2857 20.668 17.2857H26.6669V21.5714Z" fill="#F3F3F3"/>
</svg>
