<svg width="24" height="24" viewBox="0 0 24 24" fill="none" xmlns="http://www.w3.org/2000/svg">
<path d="M12 18.4C13.6974 18.4 15.3253 17.7257 16.5255 16.5255C17.7257 15.3253 18.4 13.6974 18.4 12C18.4 10.3026 17.7257 8.67475 16.5255 7.47452C15.3253 6.27428 13.6974 5.6 12 5.6C10.3026 5.6 8.67475 6.27428 7.47452 7.47452C6.27428 8.67475 5.6 10.3026 5.6 12C5.6 13.6974 6.27428 15.3253 7.47452 16.5255C8.67475 17.7257 10.3026 18.4 12 18.4ZM12 20C7.5816 20 4 16.4184 4 12C4 7.5816 7.5816 4 12 4C16.4184 4 20 7.5816 20 12C20 16.4184 16.4184 20 12 20Z" fill="#F3F3F3"/>
<path d="M14.3384 9.22083H9.6616C8.744 9.22083 8 9.95683 8 10.864V13.176C8 14.084 8.744 14.8192 9.6616 14.8192H14.3384C15.256 14.8192 16 14.0832 16 13.176V10.864C16 9.95603 15.256 9.22083 14.3384 9.22083ZM13.2152 12.1328L11.0272 13.1648C11.0138 13.1712 10.9991 13.174 10.9843 13.1731C10.9695 13.1722 10.9552 13.1676 10.9427 13.1597C10.9301 13.1518 10.9198 13.1409 10.9126 13.1279C10.9055 13.115 10.9017 13.1004 10.9016 13.0856V10.9576C10.9017 10.9426 10.9057 10.9279 10.9131 10.9149C10.9205 10.9019 10.9312 10.8909 10.944 10.8832C10.9568 10.8754 10.9714 10.871 10.9864 10.8705C11.0014 10.8699 11.0162 10.8732 11.0296 10.88L13.2168 11.976C13.2312 11.9835 13.2432 11.9949 13.2515 12.0088C13.2599 12.0227 13.2642 12.0387 13.264 12.0549C13.2639 12.0711 13.2592 12.087 13.2506 12.1008C13.242 12.1145 13.2297 12.1256 13.2152 12.1328Z" fill="#F3F3F3"/>
</svg>
